<?xml version="1.0" standalone="no"?>
<!DOCTYPE svg PUBLIC "-//W3C//DTD SVG 20010904//EN"
 "http://www.w3.org/TR/2001/REC-SVG-20010904/DTD/svg10.dtd">
<svg version="1.0" xmlns="http://www.w3.org/2000/svg"
 width="700.000000pt" height="700.000000pt" viewBox="0 0 700.000000 700.000000"
 preserveAspectRatio="xMidYMid meet">
<metadata>
Created by potrace 1.11, written by Peter Selinger 2001-2013
</metadata>
<g transform="translate(0.000000,700.000000) scale(0.100000,-0.100000)"
fill="#000000" stroke="none">
<path d="M188 3953 c7 -3 16 -2 19 1 4 3 -2 6 -13 5 -11 0 -14 -3 -6 -6z"/>
<path d="M224 3953 c6 -7 133 -15 416 -28 124 -5 335 -16 410 -21 41 -2 120
-6 175 -9 203 -11 397 -21 583 -30 205 -10 318 -16 382 -20 36 -2 124 -7 195
-10 72 -3 162 -7 200 -10 39 -2 124 -7 190 -10 66 -3 152 -8 190 -10 39 -2
117 -7 175 -10 58 -2 150 -7 205 -10 55 -3 145 -7 200 -10 219 -11 303 -15
375 -20 105 -6 309 -17 575 -30 116 -6 244 -12 385 -20 47 -2 137 -7 200 -10
63 -3 149 -8 190 -10 41 -3 129 -7 195 -10 66 -4 154 -8 195 -10 41 -3 131 -7
200 -10 69 -3 152 -8 185 -10 33 -2 116 -7 185 -11 201 -10 225 -12 232 -13 4
0 0 -24 -8 -53 -9 -28 -17 -59 -19 -67 -2 -9 -15 -61 -30 -116 -14 -55 -35
-131 -45 -170 -21 -78 -151 -574 -154 -590 -6 -22 -19 -75 -41 -155 -48 -178
-93 -262 514 948 144 288 261 525 259 527 -2 3 -1514 6 -3361 8 -1846 1 -3355
1 -3353 0z"/>
<path d="M398 3633 c7 -3 16 -2 19 1 4 3 -2 6 -13 5 -11 0 -14 -3 -6 -6z"/>
<path d="M460 3627 c3 -3 43 -8 90 -11 47 -4 96 -9 110 -11 14 -2 59 -7 100
-11 41 -3 86 -8 100 -9 14 -2 61 -7 105 -10 44 -4 91 -9 105 -10 14 -2 57 -6
95 -10 39 -4 86 -9 105 -10 19 -2 60 -6 90 -9 30 -3 82 -9 115 -12 33 -3 71
-7 85 -9 14 -2 59 -7 100 -10 114 -10 161 -14 205 -20 22 -2 67 -7 100 -10 33
-4 74 -8 90 -10 17 -2 66 -6 110 -10 44 -4 91 -8 104 -10 13 -3 61 -7 105 -11
45 -3 90 -8 101 -10 11 -2 54 -6 95 -9 41 -3 89 -8 105 -10 29 -4 90 -10 198
-20 28 -3 95 -9 147 -15 163 -18 206 -22 360 -35 41 -3 86 -8 100 -10 38 -6
116 -14 200 -20 41 -4 82 -8 90 -10 8 -2 55 -7 104 -10 50 -4 97 -8 105 -10 9
-1 54 -6 101 -10 47 -4 92 -8 100 -10 8 -2 50 -6 92 -9 42 -4 85 -8 95 -10 10
-2 59 -7 108 -11 50 -4 92 -8 95 -10 3 -1 46 -6 97 -9 50 -4 100 -8 110 -10
10 -2 54 -7 98 -11 44 -4 94 -8 110 -10 17 -2 61 -6 98 -10 37 -3 76 -8 85
-10 9 -1 57 -6 106 -10 50 -4 97 -8 106 -10 9 -2 52 -6 96 -10 43 -3 90 -8
104 -10 14 -2 62 -6 107 -10 93 -8 86 0 98 -120 4 -33 9 -71 11 -85 2 -14 6
-54 10 -90 3 -36 7 -76 10 -90 2 -14 7 -54 10 -90 4 -36 8 -72 9 -80 2 -8 6
-46 10 -83 4 -37 9 -66 11 -64 2 2 42 167 89 368 47 200 95 401 105 445 25
101 25 100 -2 101 -31 0 -249 13 -318 18 -30 2 -116 7 -190 11 -74 3 -153 7
-175 9 -22 1 -101 6 -175 10 -74 4 -155 8 -180 10 -25 2 -106 7 -180 10 -74 4
-153 8 -175 10 -22 2 -101 6 -175 10 -74 4 -155 9 -180 10 -25 2 -103 6 -175
10 -71 3 -148 8 -170 10 -22 2 -98 6 -170 10 -71 3 -155 8 -185 10 -30 3 -104
7 -165 10 -60 3 -146 8 -190 10 -143 9 -248 15 -335 20 -47 2 -128 7 -180 10
-52 3 -138 7 -190 10 -52 3 -131 8 -175 10 -44 3 -123 7 -175 10 -52 2 -131 7
-175 10 -114 7 -256 15 -360 20 -49 3 -126 7 -170 10 -44 3 -123 7 -175 10
-52 3 -131 8 -175 10 -44 3 -125 7 -180 10 -55 3 -134 7 -175 10 -195 12 -325
17 -320 12z"/>
<path d="M818 3309 c4 -4 43 -10 86 -13 43 -4 82 -8 85 -10 6 -4 64 -12 146
-21 22 -2 72 -8 110 -14 39 -5 93 -13 120 -16 28 -3 64 -8 80 -10 17 -3 55 -7
85 -11 30 -3 66 -7 79 -9 29 -5 88 -13 156 -20 28 -3 57 -8 65 -10 8 -2 40 -6
71 -10 31 -3 65 -7 75 -9 11 -2 48 -7 84 -11 36 -4 72 -9 80 -10 8 -2 42 -6
75 -9 33 -4 71 -9 85 -11 14 -2 48 -7 75 -10 28 -3 64 -7 80 -10 41 -6 85 -12
190 -25 50 -6 104 -13 120 -15 17 -2 50 -7 75 -10 25 -3 56 -7 70 -9 14 -3 52
-7 85 -11 33 -3 67 -8 75 -10 8 -2 38 -6 65 -9 28 -3 82 -10 120 -15 39 -5 95
-12 125 -16 30 -3 66 -8 80 -10 23 -4 207 -28 305 -40 50 -6 196 -25 232 -30
16 -2 136 -17 268 -34 325 -42 315 -41 355 -46 74 -10 120 -16 275 -36 88 -11
176 -22 195 -25 77 -11 97 -13 155 -19 33 -4 66 -10 75 -15 8 -5 84 -79 169
-165 84 -85 155 -154 157 -152 2 2 0 28 -6 58 -5 30 -12 70 -14 89 -8 58 -16
112 -26 165 -5 28 -12 70 -15 95 -10 76 -13 80 -53 81 -20 0 -46 2 -56 4 -11
2 -56 7 -100 10 -45 3 -97 8 -116 10 -19 2 -69 7 -110 10 -41 3 -91 7 -110 10
-19 2 -71 6 -115 10 -44 4 -91 8 -105 10 -14 2 -65 7 -115 10 -49 4 -101 8
-115 10 -14 2 -59 6 -100 10 -41 3 -91 8 -110 10 -19 2 -71 7 -115 10 -44 4
-102 8 -130 11 -27 2 -77 7 -110 9 -33 3 -78 8 -100 10 -22 2 -71 7 -110 10
-38 3 -88 8 -110 10 -22 2 -71 7 -110 10 -89 7 -171 15 -210 20 -16 2 -70 7
-119 10 -49 4 -98 8 -110 10 -11 2 -59 7 -106 10 -47 3 -103 7 -125 10 -43 5
-112 11 -215 19 -125 11 -185 17 -225 21 -22 3 -67 7 -100 10 -33 2 -114 9
-179 15 -66 6 -145 13 -175 15 -31 3 -80 7 -108 10 -84 8 -173 16 -323 30 -30
2 -82 7 -115 10 -65 6 -136 12 -230 19 -33 3 -80 8 -105 11 -25 2 -76 7 -115
11 -38 3 -105 9 -147 13 -43 4 -74 4 -70 0z"/>
</g>
</svg>
