<?xml version="1.0" encoding="utf-8"?>
<!-- Generator: Adobe Illustrator 24.0.2, SVG Export Plug-In . SVG Version: 6.00 Build 0)  -->
<svg version="1.1" id="Layer_1" xmlns="http://www.w3.org/2000/svg" xmlns:xlink="http://www.w3.org/1999/xlink" x="0px" y="0px"
	 viewBox="0 0 3000 504.4" style="enable-background:new 0 0 3000 504.4;" xml:space="preserve">
<style type="text/css">
	.st0{fill:#FFC300;}
</style>
<g>
	<polygon class="st0" points="265.2,401.5 101.3,504.4 148.5,316.8 0,192.7 193.1,179.6 265.2,0 337.3,179.6 530.4,192.7 
		381.9,316.8 429.1,504.4 	"/>
	<polygon class="st0" points="882.6,401.5 718.7,504.4 765.9,316.8 617.4,192.7 810.5,179.6 882.6,0 954.7,179.6 1147.8,192.7 
		999.3,316.8 1046.5,504.4 	"/>
	<polygon class="st0" points="1500,401.5 1336.1,504.4 1383.3,316.8 1234.8,192.7 1427.9,179.6 1500,0 1572.1,179.6 1765.2,192.7 
		1616.7,316.8 1663.9,504.4 	"/>
	<polygon class="st0" points="2117.4,401.5 1953.5,504.4 2000.7,316.8 1852.2,192.7 2045.3,179.6 2117.4,0 2189.5,179.6 
		2382.6,192.7 2234.1,316.8 2281.3,504.4 	"/>
	<polygon class="st0" points="2734.8,401.5 2570.9,504.4 2618.1,316.8 2469.6,192.7 2662.7,179.6 2734.8,0 2806.9,179.6 3000,192.7 
		2851.5,316.8 2898.7,504.4 	"/>
</g>
</svg>
