<svg id="0369dc09-15f6-4d9d-8af0-19c37e17b2e4" data-name="Layer 1" xmlns="http://www.w3.org/2000/svg" xmlns:xlink="http://www.w3.org/1999/xlink" viewBox="0 0 75.82 75.82"><defs><clipPath id="83bcca5e-116e-43f0-8f92-23b3bea1a817"><path d="M4.73,37.91A33.18,33.18,0,1,1,37.91,71.09,33.18,33.18,0,0,1,4.73,37.91M37.91,0A37.91,37.91,0,1,0,75.82,37.91,37.91,37.91,0,0,0,37.91,0Z" style="fill:none"/></clipPath><linearGradient id="a8459520-0958-46bd-b5c8-b5dd3ddaad71" y1="75.82" x2="1" y2="75.82" gradientTransform="matrix(75.82, 0, 0, -75.82, 0, 5786.93)" gradientUnits="userSpaceOnUse"><stop offset="0" stop-color="#541817"/><stop offset="0.01" stop-color="#541817"/><stop offset="0.08" stop-color="#541816"/><stop offset="0.38" stop-color="#8c5127"/><stop offset="0.69" stop-color="#d4ad85"/><stop offset="0.92" stop-color="#a06331"/><stop offset="0.96" stop-color="#985825"/><stop offset="1" stop-color="#985825"/></linearGradient><clipPath id="9363a3e9-47f7-4bd0-878f-23903448744e"><path d="M24.82,31.06v.41C25.23,32.72,32.6,34.06,38,35l.75.14,1,.19.17,0,.86.16.28.05.75.14.33.06.67.13.35.07.61.12.35.07.56.12.35.08.51.11.35.08.47.11.34.08.43.11.33.08.39.1.32.09.34.1.3.1.3.1.29.1.26.09.28.11.21.08.28.14.15.07.37.21v-6.7c-.11-.34-1-1.15-6-2.15-2.73-.54-6-1-9.13-1.42h-.1l-1.24-.16-.15,0-1.21-.16a72,72,0,0,1-8.29-1.3Z" style="fill:none"/></clipPath><linearGradient id="56c754e6-f096-48e4-9994-c506580dd4a5" y1="75.82" x2="1" y2="75.82" gradientTransform="matrix(26.15, 0, 0, -26.15, 24.81, 2015.14)" xlink:href="#a8459520-0958-46bd-b5c8-b5dd3ddaad71"/><clipPath id="3227baf0-2ec9-4847-8d1f-1389589e2431"><path d="M24.62,39.07c.22.25,1,.77,3.8,1.49,2.47.63,5.83,1.26,9.07,1.86l1.84.35C48,41.19,50.47,40.27,51,39.4c-.47-1.24-7.77-2.57-13.14-3.54l-1.43-.26c-8,1.45-11.31,2.42-11.77,3.47" style="fill:none"/></clipPath><linearGradient id="e8c82a00-4915-4be2-94e1-cb48f67abf16" y1="75.82" x2="1" y2="75.82" gradientTransform="matrix(26.33, 0, 0, -26.33, 24.62, 2035.83)" xlink:href="#a8459520-0958-46bd-b5c8-b5dd3ddaad71"/><clipPath id="ac171772-7a46-4c48-995a-baa15eef411f"><path d="M49.92,22.39l.33.14h0l.27.14h0l.22.12,0,0L51,23h0V22h0c-.53-.38-3.67-.8-6.88-1.14a35.49,35.49,0,0,1,5.81,1.57" style="fill:none"/></clipPath><linearGradient id="9124eea2-03d8-4f54-b94e-12b3cbad51a2" y1="75.82" x2="1" y2="75.82" gradientTransform="matrix(6.92, 0, 0, -6.92, 44.11, 546.69)" xlink:href="#a8459520-0958-46bd-b5c8-b5dd3ddaad71"/><clipPath id="40cf93bf-dfd7-476a-acda-b9d57958d09c"><path d="M24.76,25.6h.05v0l0,0" style="fill:none"/></clipPath><linearGradient id="569022a2-6ab2-4182-aef4-86f7346bfb91" y1="75.82" x2="1" y2="75.82" gradientTransform="matrix(0.06, 0, 0, -0.06, 24.76, 29.79)" xlink:href="#a8459520-0958-46bd-b5c8-b5dd3ddaad71"/><clipPath id="d0b535ca-9455-454b-82a1-c53ea235547f"><path d="M37.78,23.83c-9,.8-11.93,1.24-12.87,1.69a72.11,72.11,0,0,0,8.32,1.32c1.85.24,3.6.47,5.23.7,10.08-1.8,12.33-2.76,12.57-3.71-.12-.4-.9-.82-2.13-1.22-2,.35-5.54.73-11.12,1.23" style="fill:none"/></clipPath><linearGradient id="592a2a1e-9f1b-47a4-8bef-05175f6401f5" y1="75.82" x2="1" y2="75.82" gradientTransform="matrix(26.12, 0, 0, -26.12, 24.91, 2005.57)" xlink:href="#a8459520-0958-46bd-b5c8-b5dd3ddaad71"/><clipPath id="2aa121bd-4ff3-4bf5-bfea-e6a32b6740ca"><path d="M24.58,54.57c0,.4.91.82,2.2,1.24,2-.34,5.49-.72,11.06-1.21,9.35-.83,12-1.28,12.81-1.66l0-.07c-.63-.4-5-1-8.77-1.47l-4.42-.6c-9.1,1.62-12.59,2.65-12.86,3.78" style="fill:none"/></clipPath><linearGradient id="f549aea2-ce13-49a0-bfb1-10ea1e678d56" y1="75.82" x2="1" y2="75.82" gradientTransform="matrix(26.08, 0, 0, -26.08, 24.58, 2030.5)" xlink:href="#a8459520-0958-46bd-b5c8-b5dd3ddaad71"/><clipPath id="2965d04e-5555-4b52-82e9-a7fc5c4df36b"><path d="M24.58,56.44l0,0c.57.4,4,.83,7.36,1.18A40.66,40.66,0,0,1,25.75,56l-.35-.15h0l-.28-.13,0,0-.22-.12,0,0-.21-.14h0Z" style="fill:none"/></clipPath><linearGradient id="74548b62-f4ae-4154-9b8e-721fc92e0ed7" y1="75.82" x2="1" y2="75.82" gradientTransform="matrix(7.39, 0, 0, -7.39, 24.58, 616.91)" xlink:href="#a8459520-0958-46bd-b5c8-b5dd3ddaad71"/><clipPath id="c57d50ea-2d5f-4ea0-b1d3-09da2c7234ad"><path d="M24.58,46.8v0l0-.05c.15.34,1.06,1.12,5.84,2.07,3.42.68,7.75,1.25,11.57,1.75A67.87,67.87,0,0,1,50.59,52V46.84c-.4-1.19-7.82-2.57-13.25-3.58L37,43.19h0c-5.84-1.09-10.08-1.93-12.08-2.91l-.34-.19h0Z" style="fill:none"/></clipPath><linearGradient id="114ca896-025e-475a-8d80-64f281b7ee6f" y1="75.82" x2="1" y2="75.82" gradientTransform="matrix(26.02, 0, 0, -26.02, 24.58, 2018.71)" xlink:href="#a8459520-0958-46bd-b5c8-b5dd3ddaad71"/></defs><title>compression</title><g style="clip-path:url(#83bcca5e-116e-43f0-8f92-23b3bea1a817)"><rect width="75.82" height="75.82" style="fill:url(#a8459520-0958-46bd-b5c8-b5dd3ddaad71)"/></g><g style="clip-path:url(#9363a3e9-47f7-4bd0-878f-23903448744e)"><rect x="24.82" y="26.37" width="26.15" height="11.91" style="fill:url(#56c754e6-f096-48e4-9994-c506580dd4a5)"/></g><g style="clip-path:url(#3227baf0-2ec9-4847-8d1f-1389589e2431)"><rect x="24.62" y="35.6" width="26.33" height="7.17" style="fill:url(#e8c82a00-4915-4be2-94e1-cb48f67abf16)"/></g><g style="clip-path:url(#ac171772-7a46-4c48-995a-baa15eef411f)"><rect x="44.11" y="20.82" width="6.92" height="2.16" style="fill:url(#9124eea2-03d8-4f54-b94e-12b3cbad51a2)"/></g><g style="clip-path:url(#40cf93bf-dfd7-476a-acda-b9d57958d09c)"><rect x="24.76" y="25.57" width="0.05" height="0.03" style="fill:url(#569022a2-6ab2-4182-aef4-86f7346bfb91)"/></g><g style="clip-path:url(#d0b535ca-9455-454b-82a1-c53ea235547f)"><rect x="24.91" y="22.6" width="26.12" height="4.94" style="fill:url(#592a2a1e-9f1b-47a4-8bef-05175f6401f5)"/></g><g style="clip-path:url(#2aa121bd-4ff3-4bf5-bfea-e6a32b6740ca)"><rect x="24.58" y="50.8" width="26.08" height="5.01" style="fill:url(#f549aea2-ce13-49a0-bfb1-10ea1e678d56)"/></g><g style="clip-path:url(#2965d04e-5555-4b52-82e9-a7fc5c4df36b)"><rect x="24.58" y="55.41" width="7.39" height="2.24" style="fill:url(#74548b62-f4ae-4154-9b8e-721fc92e0ed7)"/></g><g style="clip-path:url(#c57d50ea-2d5f-4ea0-b1d3-09da2c7234ad)"><rect x="24.58" y="40.07" width="26.02" height="11.89" style="fill:url(#114ca896-025e-475a-8d80-64f281b7ee6f)"/></g></svg>