<svg id="185e512a-5915-4b99-9b94-2d6aafaf59d5" data-name="Layer 1" xmlns="http://www.w3.org/2000/svg" xmlns:xlink="http://www.w3.org/1999/xlink" viewBox="0 0 75.82 75.82"><defs><clipPath id="c224734c-f154-4561-a1ed-277909908ee9"><path d="M4.73,37.91A33.18,33.18,0,1,1,37.91,71.09,33.18,33.18,0,0,1,4.73,37.91M37.91,0A37.91,37.91,0,1,0,75.82,37.91,37.91,37.91,0,0,0,37.91,0Z" style="fill:none"/></clipPath><linearGradient id="435e9425-7b02-4fce-8166-53670a241580" y1="75.82" x2="1" y2="75.82" gradientTransform="matrix(75.82, 0, 0, -75.82, 0, 5786.93)" gradientUnits="userSpaceOnUse"><stop offset="0" stop-color="#541817"/><stop offset="0.01" stop-color="#541817"/><stop offset="0.08" stop-color="#541816"/><stop offset="0.38" stop-color="#8c5127"/><stop offset="0.69" stop-color="#d4ad85"/><stop offset="0.92" stop-color="#a06331"/><stop offset="0.96" stop-color="#985825"/><stop offset="1" stop-color="#985825"/></linearGradient><clipPath id="db6f13fd-0b43-4f40-8537-d53fd2d44fc3"><path d="M36.15,17.74a1.9,1.9,0,1,1,3.79,0v26a8.48,8.48,0,0,0-3.79,0Zm0-2.37A3,3,0,0,0,35,17.74V44.07a8.26,8.26,0,0,0-2.39,1.43,8.5,8.5,0,0,0-1.14,1.18,8.4,8.4,0,1,0,12-1.18,8.27,8.27,0,0,0-2.4-1.43V17.74a3,3,0,0,0-4.94-2.37" style="fill:none"/></clipPath><linearGradient id="47f3f08b-9b07-4cbc-8031-bbaff4ddf33a" y1="75.82" x2="1" y2="75.82" gradientTransform="matrix(16.79, 0, 0, -16.79, 29.66, 1310.36)" xlink:href="#435e9425-7b02-4fce-8166-53670a241580"/><clipPath id="7ee47378-6feb-4551-8c91-d2614079ef64"><path d="M35,13.26v0l0,0Zm6,0,0,0v0Z" style="fill:none"/></clipPath><linearGradient id="f0c95867-8bcb-427f-80af-cb6e4d259e66" y1="75.82" x2="1" y2="75.82" gradientTransform="matrix(6.08, 0, 0, -6.08, 35.01, 474.22)" xlink:href="#435e9425-7b02-4fce-8166-53670a241580"/><clipPath id="49eef1cb-4a45-44e7-a4b5-3f09aad9b142"><path d="M35,13.28v0h0a5.42,5.42,0,0,1,6,0h0v0a5.44,5.44,0,0,1,2.4,4.46V43.31a10.16,10.16,0,1,1-12,.84,9.88,9.88,0,0,1,1.14-.84V40.59h1.08V39.45H32.62V37.88h1.08V36.74H32.62V35.16h1.08V34H32.62V32.45h1.08V31.31H32.62V29.74h1.08V28.6H32.62V27h1.08V25.88H32.62V24.31h1.08V23.17H32.62V21.6h1.08V20.45H32.62V18.88h1.08V17.74H32.62A5.43,5.43,0,0,1,35,13.28m-2.39.8a6.53,6.53,0,0,0-1.14,3.65.35.35,0,0,0,0,0V42.42a11.53,11.53,0,1,0,13.15,0V17.79s0,0,0,0a6.57,6.57,0,0,0-12-3.65" style="fill:none"/></clipPath><linearGradient id="623745a0-5299-46dd-9bef-7bebe554b9da" y1="75.82" x2="1" y2="75.82" gradientTransform="matrix(23.07, 0, 0, -23.07, 26.51, 1786.39)" xlink:href="#435e9425-7b02-4fce-8166-53670a241580"/></defs><title>cooling</title><g style="clip-path:url(#c224734c-f154-4561-a1ed-277909908ee9)"><rect width="75.82" height="75.82" style="fill:url(#435e9425-7b02-4fce-8166-53670a241580)"/></g><g style="clip-path:url(#c224734c-f154-4561-a1ed-277909908ee9)"><rect width="75.82" height="75.82" style="fill:url(#435e9425-7b02-4fce-8166-53670a241580)"/></g><g style="clip-path:url(#db6f13fd-0b43-4f40-8537-d53fd2d44fc3)"><rect x="29.66" y="14.7" width="16.79" height="45.59" style="fill:url(#47f3f08b-9b07-4cbc-8031-bbaff4ddf33a)"/></g><g style="clip-path:url(#7ee47378-6feb-4551-8c91-d2614079ef64)"><rect x="35.01" y="13.26" width="6.08" height="0.02" style="fill:url(#f0c95867-8bcb-427f-80af-cb6e4d259e66)"/></g><g style="clip-path:url(#7ee47378-6feb-4551-8c91-d2614079ef64)"><rect x="35.01" y="13.26" width="6.08" height="0.02" style="fill:url(#f0c95867-8bcb-427f-80af-cb6e4d259e66)"/></g><g style="clip-path:url(#49eef1cb-4a45-44e7-a4b5-3f09aad9b142)"><rect x="26.51" y="11.21" width="23.07" height="52.23" style="fill:url(#623745a0-5299-46dd-9bef-7bebe554b9da)"/></g></svg>