<svg id="87a3f665-3691-4bd5-91bd-948bd261701b" data-name="Layer 1" xmlns="http://www.w3.org/2000/svg" xmlns:xlink="http://www.w3.org/1999/xlink" viewBox="0 0 75.82 75.82"><defs><clipPath id="afec3b48-d807-4fb3-a7c2-3e49828ed1f5"><path d="M4.73,37.91A33.18,33.18,0,1,1,37.91,71.09,33.18,33.18,0,0,1,4.73,37.91M37.91,0A37.91,37.91,0,1,0,75.82,37.91,37.91,37.91,0,0,0,37.91,0Z" style="fill:none"/></clipPath><linearGradient id="2d74ea00-7376-4e9f-ab18-c84ca9cdc62c" y1="75.82" x2="1" y2="75.82" gradientTransform="matrix(75.82, 0, 0, -75.82, 0, 5786.93)" gradientUnits="userSpaceOnUse"><stop offset="0" stop-color="#541817"/><stop offset="0.01" stop-color="#541817"/><stop offset="0.08" stop-color="#541816"/><stop offset="0.38" stop-color="#8c5127"/><stop offset="0.69" stop-color="#d4ad85"/><stop offset="0.92" stop-color="#a06331"/><stop offset="0.96" stop-color="#985825"/><stop offset="1" stop-color="#985825"/></linearGradient><clipPath id="557710c7-6723-4d97-b011-ec07129c765e"><path d="M40.17,21.82c-.25,5.76-4,11-6.2,16C29.64,47.78,29.8,59,39.17,65.67c-1.79-4.68-3.32-9.39-2.64-14.49.74-5.48,3.62-10.37,5.71-15.37,3.67-8.76,4.15-18.79-4.93-24,1.56,3.11,3,6.43,2.86,10" style="fill:none"/></clipPath><linearGradient id="44184410-0099-4c20-abc3-72e734dc58c6" y1="75.82" x2="1" y2="75.82" gradientTransform="matrix(13.48, 0, 0, -13.48, 31.23, 1060.67)" gradientUnits="userSpaceOnUse"><stop offset="0" stop-color="#541817"/><stop offset="0.01" stop-color="#541817"/><stop offset="0.08" stop-color="#541817"/><stop offset="0.38" stop-color="#8c5127"/><stop offset="0.69" stop-color="#d4ac84"/><stop offset="0.93" stop-color="#9c5f2d"/><stop offset="0.96" stop-color="#975825"/><stop offset="1" stop-color="#975825"/></linearGradient><clipPath id="58f067c3-d8c3-40da-99d4-3a5281105da4"><path d="M29.56,24.23c-.31,4-3,7.58-4.72,11.08-3.27,6.83-3.42,14.68,3,19.58-1.14-3.31-2.1-6.65-1.5-10.2.65-3.81,2.78-7.17,4.37-10.61,2.78-6,3.35-13-2.87-16.91a14.44,14.44,0,0,1,1.76,7.07" style="fill:none"/></clipPath><linearGradient id="9b1baf61-fddf-4603-ae78-1ef0a6362004" y1="75.82" x2="1" y2="75.82" gradientTransform="matrix(10.05, 0, 0, -10.05, 22.62, 798.09)" xlink:href="#44184410-0099-4c20-abc3-72e734dc58c6"/><clipPath id="e43a5fa0-03b0-4a93-a440-d94c932cced9"><path d="M49.15,32.68c-.31,4-3,7.58-4.72,11.08-3.27,6.83-3.42,14.68,3,19.58-1.14-3.32-2.1-6.65-1.49-10.2.65-3.82,2.78-7.17,4.37-10.61,2.78-6,3.35-13-2.87-16.91a14.45,14.45,0,0,1,1.76,7.07" style="fill:none"/></clipPath><linearGradient id="20660be9-3cd1-4b91-8c0f-9c692027dbf7" y1="75.82" x2="1" y2="75.82" gradientTransform="matrix(10.05, 0, 0, -10.05, 42.21, 806.54)" xlink:href="#44184410-0099-4c20-abc3-72e734dc58c6"/></defs><title>heat-cell</title><g style="clip-path:url(#afec3b48-d807-4fb3-a7c2-3e49828ed1f5)"><rect width="75.82" height="75.82" style="fill:url(#2d74ea00-7376-4e9f-ab18-c84ca9cdc62c)"/></g><g style="clip-path:url(#afec3b48-d807-4fb3-a7c2-3e49828ed1f5)"><rect width="75.82" height="75.82" style="fill:url(#2d74ea00-7376-4e9f-ab18-c84ca9cdc62c)"/></g><g style="clip-path:url(#557710c7-6723-4d97-b011-ec07129c765e)"><rect x="29.63" y="11.81" width="16.75" height="53.87" style="fill:url(#44184410-0099-4c20-abc3-72e734dc58c6)"/></g><g style="clip-path:url(#58f067c3-d8c3-40da-99d4-3a5281105da4)"><rect x="21.42" y="17.16" width="12.61" height="37.72" style="fill:url(#9b1baf61-fddf-4603-ae78-1ef0a6362004)"/></g><g style="clip-path:url(#e43a5fa0-03b0-4a93-a440-d94c932cced9)"><rect x="41" y="25.61" width="12.62" height="37.72" style="fill:url(#20660be9-3cd1-4b91-8c0f-9c692027dbf7)"/></g></svg>