<svg id="3a4a7092-e6d5-4654-8eff-560be4fdefb9" data-name="Layer 1" xmlns="http://www.w3.org/2000/svg" xmlns:xlink="http://www.w3.org/1999/xlink" viewBox="0 0 75.82 75.82"><defs><clipPath id="88e8f175-fe1e-463b-b9d6-2db769c0584b"><path d="M4.73,37.91A33.18,33.18,0,1,1,37.91,71.09,33.18,33.18,0,0,1,4.73,37.91M37.91,0A37.91,37.91,0,1,0,75.82,37.91,37.91,37.91,0,0,0,37.91,0Z" style="fill:none"/></clipPath><linearGradient id="a5f9fc07-9402-42d9-ba8a-af95f9c42eed" y1="75.82" x2="1" y2="75.82" gradientTransform="matrix(75.82, 0, 0, -75.82, 0, 5786.93)" gradientUnits="userSpaceOnUse"><stop offset="0" stop-color="#541817"/><stop offset="0.01" stop-color="#541817"/><stop offset="0.08" stop-color="#541816"/><stop offset="0.38" stop-color="#8c5127"/><stop offset="0.69" stop-color="#d4ad85"/><stop offset="0.92" stop-color="#a06331"/><stop offset="0.96" stop-color="#985825"/><stop offset="1" stop-color="#985825"/></linearGradient><clipPath id="09a14c40-9b4d-4e7e-9939-0338fa991e14"><path d="M53,41.25a.55.55,0,0,1-.15-.77,10,10,0,0,0-.28-12.31.55.55,0,1,1,.82-.75,11.1,11.1,0,0,1,.38,13.68.55.55,0,0,1-.46.24.56.56,0,0,1-.31-.1M48,13.71c-.5.57-12.23,14-12.23,20.81a12.65,12.65,0,0,0,25.29,0c0-6.81-11.73-20.24-12.23-20.81a.56.56,0,0,0-.42-.19.55.55,0,0,0-.42.19" style="fill:none"/></clipPath><linearGradient id="92cec6b3-a67e-4563-ab86-68fce67d9147" y1="75.82" x2="1" y2="75.82" gradientTransform="matrix(25.29, 0, 0, -25.29, 35.78, 1948.03)" gradientUnits="userSpaceOnUse"><stop offset="0" stop-color="#541717"/><stop offset="0.01" stop-color="#541717"/><stop offset="0.38" stop-color="#8c5127"/><stop offset="0.69" stop-color="#d4ae87"/><stop offset="0.93" stop-color="#9f5e2d"/><stop offset="0.96" stop-color="#9a5624"/><stop offset="1" stop-color="#9a5624"/></linearGradient><clipPath id="0461a87f-42b6-4199-b027-f33458a94561"><path d="M30.46,54.65a.55.55,0,0,1-.15-.77,7.5,7.5,0,0,0-.21-9.37.55.55,0,0,1,.82-.75,8.72,8.72,0,0,1,.3,10.75.56.56,0,0,1-.46.24.54.54,0,0,1-.31-.1m-3.89-21.5c-.39.44-9.5,10.87-9.5,16.18a9.91,9.91,0,1,0,19.82,0c0-5.32-9.11-15.74-9.49-16.18a.56.56,0,0,0-.83,0" style="fill:none"/></clipPath><linearGradient id="c025d731-8142-4c60-aa14-2a063f1c57a3" x1="0" y1="75.82" x2="1" y2="75.82" gradientTransform="matrix(19.82, 0, 0, -19.82, 17.06, 1549.13)" xlink:href="#92cec6b3-a67e-4563-ab86-68fce67d9147"/><clipPath id="38f83f74-759b-482a-90bb-531e37de01eb"><rect width="75.82" height="75.82" style="fill:none"/></clipPath></defs><title>micro-encapsulated</title><g style="clip-path:url(#88e8f175-fe1e-463b-b9d6-2db769c0584b)"><rect width="75.82" height="75.82" style="fill:url(#a5f9fc07-9402-42d9-ba8a-af95f9c42eed)"/></g><g style="clip-path:url(#88e8f175-fe1e-463b-b9d6-2db769c0584b)"><rect width="75.82" height="75.82" style="fill:url(#a5f9fc07-9402-42d9-ba8a-af95f9c42eed)"/></g><g style="clip-path:url(#09a14c40-9b4d-4e7e-9939-0338fa991e14)"><rect x="35.78" y="13.52" width="25.29" height="33.64" style="fill:url(#92cec6b3-a67e-4563-ab86-68fce67d9147)"/></g><g style="clip-path:url(#0461a87f-42b6-4199-b027-f33458a94561)"><rect x="17.06" y="32.96" width="19.82" height="26.28" style="fill:url(#c025d731-8142-4c60-aa14-2a063f1c57a3)"/></g><g style="clip-path:url(#38f83f74-759b-482a-90bb-531e37de01eb)"><path d="M54.15,58a.55.55,0,0,1-.56-.55V52.78a.55.55,0,1,1,1.11,0v4.71a.55.55,0,0,1-.55.55" style="fill:#985825"/><path d="M56.5,55.68H51.8a.55.55,0,1,1,0-1.11H56.5a.55.55,0,1,1,0,1.11" style="fill:#985825"/><path d="M15.87,34.81a.55.55,0,0,1-.56-.55V29.55a.55.55,0,1,1,1.11,0v4.71a.55.55,0,0,1-.55.55" style="fill:#985825"/><path d="M18.22,32.46H13.51a.55.55,0,1,1,0-1.11h4.71a.55.55,0,1,1,0,1.11" style="fill:#985825"/><path d="M31.93,22.23a.55.55,0,0,1-.56-.55V17a.55.55,0,1,1,1.11,0v4.71a.55.55,0,0,1-.55.55" style="fill:#985825"/><path d="M34.28,19.88H29.58a.55.55,0,1,1,0-1.11h4.71a.55.55,0,1,1,0,1.11" style="fill:#985825"/></g></svg>