<svg id="5c111626-3c14-4e9f-813a-17edd7e66f31" data-name="Layer 1" xmlns="http://www.w3.org/2000/svg" xmlns:xlink="http://www.w3.org/1999/xlink" viewBox="0 0 75.82 75.82"><defs><clipPath id="05c209c2-6117-4331-8cfc-7227bd81e6ee"><path d="M4.73,37.91A33.18,33.18,0,1,1,37.91,71.09,33.18,33.18,0,0,1,4.73,37.91M37.91,0A37.91,37.91,0,1,0,75.82,37.91,37.91,37.91,0,0,0,37.91,0Z" style="fill:none"/></clipPath><linearGradient id="c2716997-dc60-4f86-9816-86ea887fa09d" y1="75.82" x2="1" y2="75.82" gradientTransform="matrix(75.82, 0, 0, -75.82, 0, 5786.93)" gradientUnits="userSpaceOnUse"><stop offset="0" stop-color="#541817"/><stop offset="0.01" stop-color="#541817"/><stop offset="0.08" stop-color="#541816"/><stop offset="0.38" stop-color="#8c5127"/><stop offset="0.69" stop-color="#d4ad85"/><stop offset="0.92" stop-color="#a06331"/><stop offset="0.96" stop-color="#985825"/><stop offset="1" stop-color="#985825"/></linearGradient><clipPath id="9c3651c3-2c4d-4929-af58-c688503b10a4"><path d="M42.38,35.73c3.2,1.23,7.41,2.62,6.8,4.88-1.35,3.6-15.69,7.78-21.41,8.72l.59,2.73c4.26-.14,24.21-5.71,25-11.05.48-3.38-7.72-5.28-10.76-5.28h-.17" style="fill:none"/></clipPath><linearGradient id="f6e76656-473f-4ca8-8d5a-adfcbf9080d2" y1="75.82" x2="1" y2="75.82" gradientTransform="matrix(25.58, 0, 0, -25.58, 27.76, 1983.23)" xlink:href="#c2716997-dc60-4f86-9816-86ea887fa09d"/><clipPath id="703b50bf-c4df-4767-8d20-ccd09018db2a"><path d="M25.23,54.41q0,1.26-.05,2.52c9.22-1.07,25.08-4.76,27.24-12.39-7.11,6.4-19.38,8.83-27.19,9.87" style="fill:none"/></clipPath><linearGradient id="2944991a-085a-4b99-ab90-f8efb0f6adca" y1="75.82" x2="1" y2="75.82" gradientTransform="matrix(27.24, 0, 0, -27.24, 25.18, 2115.82)" xlink:href="#c2716997-dc60-4f86-9816-86ea887fa09d"/><clipPath id="cb585024-3f98-4d0f-b0ab-e419431aa2e1"><path d="M21.75,59.13q0,1.11,0,2.22a61,61,0,0,0,23.2-7.9,80.4,80.4,0,0,1-23.19,5.68" style="fill:none"/></clipPath><linearGradient id="d236e40f-4f34-46e7-a7b2-280ccbcf74b8" y1="75.82" x2="1" y2="75.82" gradientTransform="matrix(23.2, 0, 0, -23.2, 21.74, 1816.52)" xlink:href="#c2716997-dc60-4f86-9816-86ea887fa09d"/><clipPath id="8233e2fc-a775-466a-b72a-7596f4482ce2"><path d="M21.76,36.86c-.49,3.45,8,5.35,10.94,5.28-3.2-1.23-7.41-2.62-6.8-4.88,1.35-3.6,15.69-7.78,21.42-8.72l-.59-2.73c-4.26.14-24.21,5.71-25,11.05" style="fill:none"/></clipPath><linearGradient id="132165e5-c9cd-45b8-a2a7-168b8912f688" y1="75.82" x2="1" y2="75.82" gradientTransform="matrix(25.58, 0, 0, -25.58, 21.74, 1973.3)" xlink:href="#c2716997-dc60-4f86-9816-86ea887fa09d"/><clipPath id="45ac4b7c-28e4-4be2-a05c-c93f0f435998"><path d="M22.66,33.33c7.11-6.4,19.38-8.83,27.19-9.87l0-2.52C40.67,22,24.82,25.7,22.66,33.33" style="fill:none"/></clipPath><linearGradient id="5f03da9f-fa86-4268-a9bc-c0d1dd96d073" y1="75.82" x2="1" y2="75.82" gradientTransform="matrix(27.24, 0, 0, -27.24, 22.66, 2092.22)" xlink:href="#c2716997-dc60-4f86-9816-86ea887fa09d"/><clipPath id="5de6f78f-ccb5-4555-8fcb-8943dd4083d4"><path d="M30.14,24.43a80.39,80.39,0,0,1,23.19-5.68c0-.74,0-1.48,0-2.22a61,61,0,0,0-23.2,7.9" style="fill:none"/></clipPath><linearGradient id="6ed34b04-9c27-4eb4-97b3-a4a1a12bceca" y1="75.82" x2="1" y2="75.82" gradientTransform="matrix(23.2, 0, 0, -23.2, 30.14, 1779.6)" xlink:href="#c2716997-dc60-4f86-9816-86ea887fa09d"/></defs><title>motion-activated</title><g style="clip-path:url(#05c209c2-6117-4331-8cfc-7227bd81e6ee)"><rect width="75.82" height="75.82" style="fill:url(#c2716997-dc60-4f86-9816-86ea887fa09d)"/></g><g style="clip-path:url(#05c209c2-6117-4331-8cfc-7227bd81e6ee)"><rect width="75.82" height="75.82" style="fill:url(#c2716997-dc60-4f86-9816-86ea887fa09d)"/></g><g style="clip-path:url(#9c3651c3-2c4d-4929-af58-c688503b10a4)"><rect x="27.76" y="35.73" width="26.03" height="16.33" style="fill:url(#f6e76656-473f-4ca8-8d5a-adfcbf9080d2)"/></g><g style="clip-path:url(#703b50bf-c4df-4767-8d20-ccd09018db2a)"><rect x="25.18" y="44.54" width="27.24" height="12.39" style="fill:url(#2944991a-085a-4b99-ab90-f8efb0f6adca)"/></g><g style="clip-path:url(#cb585024-3f98-4d0f-b0ab-e419431aa2e1)"><rect x="21.74" y="53.45" width="23.2" height="7.9" style="fill:url(#d236e40f-4f34-46e7-a7b2-280ccbcf74b8)"/></g><g style="clip-path:url(#8233e2fc-a775-466a-b72a-7596f4482ce2)"><rect x="21.27" y="25.81" width="26.04" height="16.41" style="fill:url(#132165e5-c9cd-45b8-a2a7-168b8912f688)"/></g><g style="clip-path:url(#45ac4b7c-28e4-4be2-a05c-c93f0f435998)"><rect x="22.66" y="20.94" width="27.24" height="12.39" style="fill:url(#5f03da9f-fa86-4268-a9bc-c0d1dd96d073)"/></g><g style="clip-path:url(#5de6f78f-ccb5-4555-8fcb-8943dd4083d4)"><rect x="30.14" y="16.52" width="23.2" height="7.9" style="fill:url(#6ed34b04-9c27-4eb4-97b3-a4a1a12bceca)"/></g></svg>