<svg id="757ad131-750e-45ad-8c43-2dc9f8c2663c" data-name="Layer 1" xmlns="http://www.w3.org/2000/svg" xmlns:xlink="http://www.w3.org/1999/xlink" viewBox="0 0 75.82 75.82"><defs><clipPath id="d2388e6b-7713-4a1c-8a4f-7814a4bd65db"><path d="M27.53,47.43c-1,7.29,2.64,13.67,10.39,17.89-.31-.78-.45-1.27-.68-1.72-3.44-6.77-3.39-13.27.44-19.52l-6.46-6.41a24.77,24.77,0,0,0-3.7,9.75" style="fill:none"/></clipPath><linearGradient id="72ab9a9f-9c6a-4d99-be0f-d701c9022ffc" y1="75.82" x2="1" y2="75.82" gradientTransform="matrix(10.55, 0, 0, -10.55, 27.37, 851.45)" gradientUnits="userSpaceOnUse"><stop offset="0" stop-color="#541717"/><stop offset="0.01" stop-color="#541717"/><stop offset="0.08" stop-color="#541816"/><stop offset="0.38" stop-color="#8c5127"/><stop offset="0.69" stop-color="#d4ae87"/><stop offset="0.93" stop-color="#9f5e2d"/><stop offset="0.96" stop-color="#9a5624"/><stop offset="1" stop-color="#9a5624"/></linearGradient><clipPath id="43c8106d-5cef-4d27-85e7-be2dba3dc355"><path d="M39,10.47a13.1,13.1,0,0,0,.65,1.24c3.19,5,3.05,9.93-.29,14.76C38.28,28,37.17,29.52,36,31l6.34,6.29q.89-1.3,1.74-2.62a23.92,23.92,0,0,0,4.25-11.54c.38-5.6-4.07-11.87-9.54-13.15a4.42,4.42,0,0,0,.17.47" style="fill:none"/></clipPath><linearGradient id="e081e348-12ce-4f37-a960-8a16246dd891" y1="75.82" y2="75.82" gradientTransform="matrix(12.35, 0, 0, -12.35, 36.04, 959.92)" xlink:href="#72ab9a9f-9c6a-4d99-be0f-d701c9022ffc"/><clipPath id="f1908b89-c985-4719-99ec-1a469cbe1e62"><path d="M17.83,37.26c-3.41,6.55-.92,13.91,5.51,16.67-.32-.85-.56-1.54-.83-2.21a12.31,12.31,0,0,1,.81-11.89c.87-1.38,1.85-2.7,2.72-4.08.42-.65.85-1.3,1.28-1.95l-4.24-4.2a61.18,61.18,0,0,0-5.25,7.66" style="fill:none"/></clipPath><linearGradient id="212a8547-51c1-4b44-ab4f-c6dd9f2ddaa3" y1="75.82" y2="75.82" gradientTransform="matrix(11.02, 0, 0, -11.02, 16.3, 877.47)" xlink:href="#72ab9a9f-9c6a-4d99-be0f-d701c9022ffc"/><clipPath id="fbcd2067-774d-4da3-ae3a-d88ae2764b06"><path d="M26.44,19.77a7.28,7.28,0,0,1,.29,2L31,26c.78-4.68-1.59-8.74-6.31-10.43a37.84,37.84,0,0,1,1.73,4.17" style="fill:none"/></clipPath><linearGradient id="38ccc813-938c-4b26-9c3a-ac79d6ce9555" y1="75.82" y2="75.82" gradientTransform="matrix(6.45, 0, 0, -6.45, 24.71, 510.08)" xlink:href="#72ab9a9f-9c6a-4d99-be0f-d701c9022ffc"/><clipPath id="35099867-f6aa-47a9-b58d-7e8419185c8f"><path d="M49,63.82c-.23-.64-.32-1-.46-1.28a13.71,13.71,0,0,1-1.08-8.81l-4.63-4.59c-1.92,5.76.35,11.57,6.17,14.68" style="fill:none"/></clipPath><linearGradient id="b09910c6-8ac6-41cb-9623-10192525661e" y1="75.82" y2="75.82" gradientTransform="matrix(6.84, 0, 0, -6.84, 42.11, 575.16)" xlink:href="#72ab9a9f-9c6a-4d99-be0f-d701c9022ffc"/><clipPath id="6dfb85cc-291d-4aca-b299-e1be8a7860af"><path d="M51.77,26.14c2.47,4.18,1.78,8-1.2,11.65-1.15,1.41-2.33,2.8-3.45,4.22l4.44,4.4C52.41,45.3,53.25,44.18,54,43a29.55,29.55,0,0,0,2.89-5.18c2.09-5.23-.17-10.4-5.48-12.56a6.78,6.78,0,0,0,.35.86" style="fill:none"/></clipPath><linearGradient id="727ad1c8-9252-4cad-bfd6-09052ac07f44" y1="75.82" y2="75.82" gradientTransform="matrix(10.56, 0, 0, -10.56, 47.12, 836.15)" xlink:href="#72ab9a9f-9c6a-4d99-be0f-d701c9022ffc"/><clipPath id="30aa8d5c-4b60-4cbd-b98d-90f2e0435b28"><path d="M4.73,37.91a33,33,0,0,1,8-21.57L59.49,63.11A33.17,33.17,0,0,1,4.73,37.91M16,13A33.17,33.17,0,0,1,62.82,59.82ZM37.91,0A37.91,37.91,0,1,0,75.82,37.91,37.91,37.91,0,0,0,37.91,0Z" style="fill:none"/></clipPath><linearGradient id="eb522002-01b5-453a-b6f3-6960e06b0568" y1="75.82" y2="75.82" gradientTransform="matrix(75.82, 0, 0, -75.82, 0, 5786.93)" xlink:href="#72ab9a9f-9c6a-4d99-be0f-d701c9022ffc"/></defs><title>odor-reducing</title><g style="clip-path:url(#d2388e6b-7713-4a1c-8a4f-7814a4bd65db)"><rect x="26.54" y="37.67" width="11.38" height="27.64" style="fill:url(#72ab9a9f-9c6a-4d99-be0f-d701c9022ffc)"/></g><g style="clip-path:url(#43c8106d-5cef-4d27-85e7-be2dba3dc355)"><rect x="36.04" y="9.99" width="12.71" height="27.31" style="fill:url(#e081e348-12ce-4f37-a960-8a16246dd891)"/></g><g style="clip-path:url(#f1908b89-c985-4719-99ec-1a469cbe1e62)"><rect x="14.42" y="29.6" width="12.9" height="24.32" style="fill:url(#212a8547-51c1-4b44-ab4f-c6dd9f2ddaa3)"/></g><g style="clip-path:url(#fbcd2067-774d-4da3-ae3a-d88ae2764b06)"><rect x="24.71" y="15.6" width="7.09" height="10.43" style="fill:url(#38ccc813-938c-4b26-9c3a-ac79d6ce9555)"/></g><g style="clip-path:url(#35099867-f6aa-47a9-b58d-7e8419185c8f)"><rect x="40.85" y="49.13" width="8.1" height="14.68" style="fill:url(#b09910c6-8ac6-41cb-9623-10192525661e)"/></g><g style="clip-path:url(#6dfb85cc-291d-4aca-b299-e1be8a7860af)"><rect x="47.12" y="25.28" width="11.87" height="21.13" style="fill:url(#727ad1c8-9252-4cad-bfd6-09052ac07f44)"/></g><g style="clip-path:url(#30aa8d5c-4b60-4cbd-b98d-90f2e0435b28)"><rect width="75.82" height="75.82" style="fill:url(#eb522002-01b5-453a-b6f3-6960e06b0568)"/></g></svg>