<svg id="f4ab96f0-7ff7-4f34-8ac4-52aa302a14d3" data-name="Layer 1" xmlns="http://www.w3.org/2000/svg" xmlns:xlink="http://www.w3.org/1999/xlink" viewBox="0 0 75.82 75.82"><defs><clipPath id="23c7f5fb-89d4-4482-9c96-a27f0374e7cc"><path d="M4.73,37.91A33.18,33.18,0,1,1,37.91,71.09,33.18,33.18,0,0,1,4.73,37.91M37.91,0A37.91,37.91,0,1,0,75.82,37.91,37.91,37.91,0,0,0,37.91,0Z" style="fill:none"/></clipPath><linearGradient id="4b0ba6f3-dc04-4c2f-8a40-f57d9c50e8ed" y1="75.82" x2="1" y2="75.82" gradientTransform="matrix(75.82, 0, 0, -75.82, 0, 5786.93)" gradientUnits="userSpaceOnUse"><stop offset="0" stop-color="#541817"/><stop offset="0.01" stop-color="#541817"/><stop offset="0.08" stop-color="#541816"/><stop offset="0.38" stop-color="#8c5127"/><stop offset="0.69" stop-color="#d4ad85"/><stop offset="0.92" stop-color="#a06331"/><stop offset="0.96" stop-color="#985825"/><stop offset="1" stop-color="#985825"/></linearGradient><clipPath id="2bb22dcb-a44b-4e77-b404-54f0a3fac2f4"><path d="M38,54.71c0-.18,1.81-.32,4.05-.32s4.05.15,4.05.32S44.26,55,42,55,38,54.89,38,54.71m-13.26-2.4c0,5.92,26.39,8.08,26.39,2.91,0-4.79-18.31-1.69-18.31-1.69S29,52.88,29,52.13c0-.48,2.59-1,4.47-1.24-1.13-.22-2.21-.47-3.19-.76A21.06,21.06,0,0,1,27.39,49c-.35.17-2.68,1.35-2.68,3.26" style="fill:none"/></clipPath><linearGradient id="0e977401-f00f-484f-9604-29ade237cb26" y1="75.78" x2="1" y2="75.78" gradientTransform="matrix(26.39, 0, 0, -26.39, 24.72, 2054.7)" xlink:href="#4b0ba6f3-dc04-4c2f-8a40-f57d9c50e8ed"/><clipPath id="137de3c4-cb9c-4498-ab06-ea56078dee6b"><path d="M38,47.3C38,47.12,39.78,47,42,47s4.05.14,4.05.32-1.81.32-4.05.32S38,47.48,38,47.3m-13.26-2.4c0,5.92,26.39,8.08,26.39,2.91,0-4.79-18.31-1.69-18.31-1.69S29,45.47,29,44.72c0-.48,2.59-1,4.47-1.24-1.13-.22-2.21-.47-3.19-.76a21.05,21.05,0,0,1-2.92-1.07c-.35.17-2.68,1.36-2.68,3.26" style="fill:none"/></clipPath><linearGradient id="e17b6674-eac2-40af-ad9d-2e8f5e62674c" y1="75.78" x2="1" y2="75.78" gradientTransform="matrix(26.39, 0, 0, -26.39, 24.72, 2047.29)" xlink:href="#4b0ba6f3-dc04-4c2f-8a40-f57d9c50e8ed"/><clipPath id="a8cd8348-39b4-4bfe-b5c0-574e3414615c"><path d="M38,39.9c0-.18,1.81-.32,4.05-.32s4.05.15,4.05.32-1.81.32-4.05.32S38,40.07,38,39.9M24.72,37.5c0,5.92,26.39,8.08,26.39,2.91,0-4.79-18.31-1.69-18.31-1.69S29,38.06,29,37.31c0-.48,2.59-1,4.47-1.24-1.13-.22-2.21-.47-3.19-.76a21.06,21.06,0,0,1-2.92-1.07c-.35.17-2.68,1.36-2.68,3.27" style="fill:none"/></clipPath><linearGradient id="91a73f86-ede9-4f9b-b716-05e991380c13" y1="75.78" x2="1" y2="75.78" gradientTransform="matrix(26.39, 0, 0, -26.39, 24.72, 2039.89)" xlink:href="#4b0ba6f3-dc04-4c2f-8a40-f57d9c50e8ed"/><clipPath id="2241f807-42e4-48c8-abce-5934d5adef1f"><path d="M38,32.49c0-.18,1.81-.32,4.05-.32s4.05.14,4.05.32-1.81.32-4.05.32S38,32.67,38,32.49m-13.26-2.4c0,5.92,26.39,8.08,26.39,2.91,0-4.79-18.31-1.69-18.31-1.69S29,30.66,29,29.91c0-.48,2.59-1,4.47-1.24-1.13-.22-2.21-.47-3.19-.76a20.93,20.93,0,0,1-2.92-1.07c-.35.17-2.68,1.36-2.68,3.26" style="fill:none"/></clipPath><linearGradient id="f42df1b5-7a80-49a5-909f-0b1d57a955c5" y1="75.78" x2="1" y2="75.78" gradientTransform="matrix(26.39, 0, 0, -26.39, 24.72, 2032.48)" xlink:href="#4b0ba6f3-dc04-4c2f-8a40-f57d9c50e8ed"/><clipPath id="f085c1ff-2db2-46f2-afd1-2166463d89f0"><path d="M38,25.08c0-.18,1.81-.32,4.05-.32s4.05.15,4.05.32-1.81.32-4.05.32S38,25.26,38,25.08M24.72,22.69c0,5.92,26.39,8.08,26.39,2.91,0-4.79-18.31-1.69-18.31-1.69S29,23.93,29,22.5c0-1.59,14.1-2.36,18.14-2.27a1.93,1.93,0,0,1-.45-1,1.82,1.82,0,0,1,.42-1.45c-.73,0-2-.06-3.6-.06-6.68,0-18.83.6-18.83,5" style="fill:none"/></clipPath><linearGradient id="d4ca84a1-3460-4cc9-a1b9-919ca450e3b7" y1="75.78" x2="1" y2="75.78" gradientTransform="matrix(26.39, 0, 0, -26.39, 24.72, 2024.21)" xlink:href="#4b0ba6f3-dc04-4c2f-8a40-f57d9c50e8ed"/><clipPath id="6ef6fd24-843e-4691-a44d-9480f69b0e79"><rect width="75.82" height="75.82" style="fill:none"/></clipPath></defs><title>shock-absorbing</title><g style="clip-path:url(#23c7f5fb-89d4-4482-9c96-a27f0374e7cc)"><rect width="75.82" height="75.82" style="fill:url(#4b0ba6f3-dc04-4c2f-8a40-f57d9c50e8ed)"/></g><g style="clip-path:url(#23c7f5fb-89d4-4482-9c96-a27f0374e7cc)"><rect width="75.82" height="75.82" style="fill:url(#4b0ba6f3-dc04-4c2f-8a40-f57d9c50e8ed)"/></g><g style="clip-path:url(#2bb22dcb-a44b-4e77-b404-54f0a3fac2f4)"><rect x="24.72" y="49.05" width="26.39" height="11.34" style="fill:url(#0e977401-f00f-484f-9604-29ade237cb26)"/></g><g style="clip-path:url(#137de3c4-cb9c-4498-ab06-ea56078dee6b)"><rect x="24.72" y="41.64" width="26.39" height="11.34" style="fill:url(#e17b6674-eac2-40af-ad9d-2e8f5e62674c)"/></g><g style="clip-path:url(#a8cd8348-39b4-4bfe-b5c0-574e3414615c)"><rect x="24.72" y="34.24" width="26.39" height="11.34" style="fill:url(#91a73f86-ede9-4f9b-b716-05e991380c13)"/></g><g style="clip-path:url(#2241f807-42e4-48c8-abce-5934d5adef1f)"><rect x="24.72" y="26.83" width="26.39" height="11.34" style="fill:url(#f42df1b5-7a80-49a5-909f-0b1d57a955c5)"/></g><g style="clip-path:url(#f085c1ff-2db2-46f2-afd1-2166463d89f0)"><rect x="24.72" y="17.68" width="26.39" height="13.08" style="fill:url(#d4ca84a1-3460-4cc9-a1b9-919ca450e3b7)"/></g><g style="clip-path:url(#6ef6fd24-843e-4691-a44d-9480f69b0e79)"><path d="M47.09,19.15c.08.66.55,1.21,1,1.15s.78-.69.7-1.35-.51-1.22-1-1.17-.82.71-.74,1.37" style="fill:#985825"/></g></svg>