<svg id="9bb2af06-ca05-434d-a227-42353af390d7" data-name="Layer 1" xmlns="http://www.w3.org/2000/svg" xmlns:xlink="http://www.w3.org/1999/xlink" viewBox="0 0 75.82 75.82"><defs><clipPath id="064e7c2c-e2f0-43b6-9144-2c607e32c117"><path d="M4.73,37.91A33.18,33.18,0,1,1,37.91,71.09,33.18,33.18,0,0,1,4.73,37.91M37.91,0A37.91,37.91,0,1,0,75.82,37.91,37.91,37.91,0,0,0,37.91,0Z" style="fill:none"/></clipPath><linearGradient id="36ae004e-f2c1-4abe-8681-8983ac4044fa" y1="75.82" x2="1" y2="75.82" gradientTransform="matrix(75.82, 0, 0, -75.82, 0, 5786.93)" gradientUnits="userSpaceOnUse"><stop offset="0" stop-color="#541817"/><stop offset="0.01" stop-color="#541817"/><stop offset="0.08" stop-color="#541816"/><stop offset="0.38" stop-color="#8c5127"/><stop offset="0.69" stop-color="#d4ad85"/><stop offset="0.92" stop-color="#a06331"/><stop offset="0.96" stop-color="#985825"/><stop offset="1" stop-color="#985825"/></linearGradient><clipPath id="25d7b7f4-9b1d-4d37-8852-d3f30496b7e7"><polygon points="41.63 35.07 56.67 31.42 56.67 33.95 65.73 28.73 56.67 23.5 56.67 26.04 41.63 22.39 41.63 35.07" style="fill:none"/></clipPath><linearGradient id="93d3cdb0-bd73-4e89-9958-89c867248cea" y1="75.82" x2="1" y2="75.82" gradientTransform="matrix(24.09, 0, 0, -24.09, 41.63, 1855.51)" gradientUnits="userSpaceOnUse"><stop offset="0" stop-color="#541717"/><stop offset="0.01" stop-color="#541717"/><stop offset="0.08" stop-color="#541816"/><stop offset="0.38" stop-color="#8c5127"/><stop offset="0.69" stop-color="#d4ae87"/><stop offset="0.93" stop-color="#9f5e2d"/><stop offset="0.96" stop-color="#9a5624"/><stop offset="1" stop-color="#9a5624"/></linearGradient><clipPath id="f6d4f485-1932-41ca-89f1-37da623c5ea3"><polygon points="19.75 26.04 19.75 23.5 10.7 28.73 19.75 33.95 19.75 31.42 34.79 35.07 34.79 22.39 19.75 26.04" style="fill:none"/></clipPath><linearGradient id="7858724c-9d37-4c8e-acd8-7a1db6dac711" x1="0" y1="75.82" x2="1" y2="75.82" gradientTransform="matrix(24.09, 0, 0, -24.09, 10.7, 1855.51)" xlink:href="#93d3cdb0-bd73-4e89-9958-89c867248cea"/><clipPath id="e425a110-9c1d-48ff-b65a-2ae3a9a8b336"><path d="M31.42,61.32,37.77,59l6.34,2.3-6.34,2.3ZM21,57.54l6.34-2.3,6.34,2.3-6.34,2.3Zm20.89,0,6.35-2.3,6.34,2.3-6.35,2.3ZM31.42,53.76l6.35-2.3,6.34,2.3-6.34,2.3ZM21,50l1.48-.53h9.74l1.47.53-6.34,2.3Zm20.89,0,1.47-.53h9.74l1.48.53-6.34,2.3ZM6.65,42a31.5,31.5,0,0,0,2.11,7.47h2.55l1.48.53L9.57,51.13q.63,1.27,1.38,2.47l5.93-2.15,6.35,2.3-6.34,2.3L11.19,54a32,32,0,0,0,4.39,5.51l1.3-.47,6.34,2.3L19.4,62.71a32,32,0,0,0,2.94,1.9l5-1.81,6.34,2.3-5.63,2A31.39,31.39,0,0,0,33,68.32l4.8-1.74,4.91,1.78a31.61,31.61,0,0,0,5-1.15L41.87,65.1l6.34-2.3,5.23,1.9a31.78,31.78,0,0,0,3-1.9l-4.09-1.48L58.65,59l1.58.57a31.92,31.92,0,0,0,4.61-5.78l-6.19,2.24-6.34-2.3,6.34-2.3,6.25,2.26q.75-1.2,1.39-2.47L62.75,50l1.48-.53h2.93A31.45,31.45,0,0,0,69.27,42Z" style="fill:none"/></clipPath><linearGradient id="8cc12c5a-2a9b-41a2-9128-da82b1fe188e" x1="0" y1="75.82" x2="1" y2="75.82" gradientTransform="matrix(91.92, 0, 0, -91.92, -8.23, 7024.95)" xlink:href="#93d3cdb0-bd73-4e89-9958-89c867248cea"/></defs><title>venting</title><g style="clip-path:url(#064e7c2c-e2f0-43b6-9144-2c607e32c117)"><rect width="75.82" height="75.82" style="fill:url(#36ae004e-f2c1-4abe-8681-8983ac4044fa)"/></g><g style="clip-path:url(#25d7b7f4-9b1d-4d37-8852-d3f30496b7e7)"><rect x="41.63" y="22.39" width="24.09" height="12.68" style="fill:url(#93d3cdb0-bd73-4e89-9958-89c867248cea)"/></g><g style="clip-path:url(#f6d4f485-1932-41ca-89f1-37da623c5ea3)"><rect x="10.7" y="22.39" width="24.09" height="12.68" style="fill:url(#7858724c-9d37-4c8e-acd8-7a1db6dac711)"/></g><g style="clip-path:url(#e425a110-9c1d-48ff-b65a-2ae3a9a8b336)"><rect x="6.65" y="41.97" width="62.63" height="26.39" style="fill:url(#8cc12c5a-2a9b-41a2-9128-da82b1fe188e)"/></g></svg>