<svg id="966a362d-72df-48a7-b0d5-4153312520c4" data-name="Layer 1" xmlns="http://www.w3.org/2000/svg" xmlns:xlink="http://www.w3.org/1999/xlink" viewBox="0 0 75.82 75.82"><defs><clipPath id="8a3401ac-afc8-4882-a3e2-5ca5fbb229ea"><path d="M4.73,37.91A33.18,33.18,0,1,1,37.91,71.09,33.18,33.18,0,0,1,4.73,37.91M37.91,0A37.91,37.91,0,1,0,75.82,37.91,37.91,37.91,0,0,0,37.91,0Z" style="fill:none"/></clipPath><linearGradient id="29316cac-1267-438b-a9b6-84c65d7a1939" y1="75.82" x2="1" y2="75.82" gradientTransform="matrix(75.82, 0, 0, -75.82, 0, 5786.93)" gradientUnits="userSpaceOnUse"><stop offset="0" stop-color="#541817"/><stop offset="0.01" stop-color="#541817"/><stop offset="0.08" stop-color="#541816"/><stop offset="0.38" stop-color="#8c5127"/><stop offset="0.69" stop-color="#d4ad85"/><stop offset="0.92" stop-color="#a06331"/><stop offset="0.96" stop-color="#985825"/><stop offset="1" stop-color="#985825"/></linearGradient><clipPath id="8402ee22-2cb7-465f-b6d6-f8fdbdaf5f80"><path d="M31.54,61.65l6.34-2.3,6.34,2.3-6.34,2.3ZM21.1,57.87l6.34-2.3,6.34,2.3-6.34,2.3Zm20.89,0,6.35-2.3,6.34,2.3-6.35,2.3ZM31.54,54.09l6.35-2.3,6.34,2.3-6.35,2.3ZM21.1,50.31l1.48-.53h9.74l1.47.53-6.34,2.3ZM42,50.3l1.47-.53H53.2l1.48.53-6.34,2.3Zm-35.22-8a31.5,31.5,0,0,0,2.11,7.47h2.55l1.48.53L9.69,51.47q.63,1.27,1.38,2.47L17,51.79l6.34,2.3L17,56.39l-5.7-2.06a32,32,0,0,0,4.39,5.51l1.3-.47,6.34,2.3L19.51,63a32.17,32.17,0,0,0,2.94,1.9l5-1.81,6.34,2.3-5.64,2a31.39,31.39,0,0,0,4.94,1.18l4.8-1.74L42.8,68.7a31.47,31.47,0,0,0,5-1.15L42,65.43l6.34-2.3L53.56,65a31.69,31.69,0,0,0,3-1.9l-4.09-1.48,6.35-2.3,1.58.57A31.92,31.92,0,0,0,65,54.14l-6.19,2.24-6.34-2.3,6.34-2.3L65,54.05q.75-1.2,1.39-2.47l-3.54-1.28,1.48-.53h2.93a31.45,31.45,0,0,0,2.11-7.47Z" style="fill:none"/></clipPath><linearGradient id="912d1af2-5fb2-4ead-af29-b5f5399bec3e" y1="75.82" x2="1" y2="75.82" gradientTransform="matrix(91.92, 0, 0, -91.92, -8.11, 7025.28)" gradientUnits="userSpaceOnUse"><stop offset="0" stop-color="#541717"/><stop offset="0.01" stop-color="#541717"/><stop offset="0.08" stop-color="#541816"/><stop offset="0.38" stop-color="#8c5127"/><stop offset="0.69" stop-color="#d4ae87"/><stop offset="0.93" stop-color="#9f5e2d"/><stop offset="0.96" stop-color="#9a5624"/><stop offset="1" stop-color="#9a5624"/></linearGradient><clipPath id="2c04d105-9803-4ad5-80ca-b0c6f36b7439"><path d="M23.46,14.67c-.48.54.6.75,2.09-.15C22.17,19,22.17,26.13,22.17,26.13c0,4.27.6,10.24,3.43,14.15,1.14,1.58.78.36.39-.12s-.74-1.25.3-.21,2.53,1.7,1.64.81a6,6,0,0,1-1.07-1.4c-1-1.58-.18-1.46,1.55.3.45.45,2.54,1.55.78-.39s-2.06-3.4-.48-1.55c1.47,1.67,3,1.73,1.38.15s-3.2-4.77.27-.78c1.55,1.76,3,2.27,1.67.66s-1-2.15-.09-.93,4.18,3.1,1.73.6a23.5,23.5,0,0,1-5.52-10.15,18.84,18.84,0,0,1,0-12.3c1.85,1.55,2.39,1.37,2.06.48,0,0-.75-2.27.6-5.88a27.39,27.39,0,0,0-7.34,5.1" style="fill:none"/></clipPath><linearGradient id="9614b3ca-050d-4e1d-85f9-12e077c2155f" y1="75.79" y2="75.79" gradientTransform="matrix(12.39, 0, 0, -12.39, 22.17, 964.47)" xlink:href="#912d1af2-5fb2-4ead-af29-b5f5399bec3e"/><clipPath id="1339981a-85b6-47e3-a4a1-a61ef0d48bd5"><path d="M47,20.62c-.26.72.17.86,1.65-.38a15.11,15.11,0,0,1,0,9.83,18.86,18.86,0,0,1-4.41,8.11c-2,2,.64.48,1.38-.47s1-.55-.07.74.09.88,1.33-.52c2.76-3.2,1.45-.62.21.62s-.07,1.22,1.1-.12,1-.29-.38,1.24.26.67.62.31c1.38-1.41,2-1.5,1.24-.24a4.79,4.79,0,0,1-.86,1.12c-.71.71.45.22,1.31-.64s.55-.21.24.17-.6,1.36.31.1c2.26-3.12,2.74-7.89,2.74-11.31,0,0,0-5.72-2.69-9.28,1.19.72,2.05.55,1.67.12a21.91,21.91,0,0,0-5.87-4.08,7.66,7.66,0,0,1,.48,4.7" style="fill:none"/></clipPath><linearGradient id="0840ccd7-843c-4214-a39a-d9e5277e9533" y1="75.8" y2="75.8" gradientTransform="matrix(9.9, 0, 0, -9.9, 43.53, 778.97)" xlink:href="#912d1af2-5fb2-4ead-af29-b5f5399bec3e"/></defs><title>wicking</title><g style="clip-path:url(#8a3401ac-afc8-4882-a3e2-5ca5fbb229ea)"><rect width="75.82" height="75.82" style="fill:url(#29316cac-1267-438b-a9b6-84c65d7a1939)"/></g><g style="clip-path:url(#8402ee22-2cb7-465f-b6d6-f8fdbdaf5f80)"><rect x="6.76" y="42.31" width="62.63" height="26.39" style="fill:url(#912d1af2-5fb2-4ead-af29-b5f5399bec3e)"/></g><g style="clip-path:url(#2c04d105-9803-4ad5-80ca-b0c6f36b7439)"><rect x="22.17" y="9.57" width="13.94" height="32.29" style="fill:url(#9614b3ca-050d-4e1d-85f9-12e077c2155f)"/></g><g style="clip-path:url(#1339981a-85b6-47e3-a4a1-a61ef0d48bd5)"><rect x="42.29" y="15.92" width="11.14" height="25.8" style="fill:url(#0840ccd7-843c-4214-a39a-d9e5277e9533)"/></g></svg>