<svg id="a60ae604-dce6-4c5c-825b-9efbb46fe2d7" data-name="Layer 1" xmlns="http://www.w3.org/2000/svg" viewBox="0 0 269.18 101.07"><path d="M255.27,87.07a2.82,2.82,0,1,1-2.81-2.74,2.75,2.75,0,0,1,2.81,2.74m-4.93,0a2.12,2.12,0,0,0,2.14,2.19,2.09,2.09,0,0,0,2.08-2.17,2.11,2.11,0,1,0-4.22,0M252,88.5h-.64V85.77a5.48,5.48,0,0,1,1.06-.09,1.78,1.78,0,0,1,1,.2.78.78,0,0,1,.27.61.7.7,0,0,1-.57.63v0a.83.83,0,0,1,.5.67,1.8,1.8,0,0,0,.2.68h-.69a2.18,2.18,0,0,1-.21-.66c-.05-.3-.22-.44-.57-.44H252ZM252,87h.31c.35,0,.63-.11.63-.4s-.18-.42-.59-.42a1.33,1.33,0,0,0-.35,0Z" style="fill:#fff"/><polygon points="20.34 56.38 162.97 64.45 157.59 87.32 155.57 69.83 20.34 56.38" style="fill:#fff"/><polygon points="28.41 64 150.63 74.99 152.61 87.23 144.51 78.99 28.41 64" style="fill:#fff"/><path d="M177.66,88.86,192.32,59c3.89-7.91,11-10.09,22.77-10h4.07l-4.08,8.32h-6.73c-3.65,0-5.21,1.32-6.36,3.65h11.3l-4.08,8.33h-11.3l-9.63,19.61Z" style="fill:#fff"/><path d="M232.32,48.51c3.39,0,5.14,2.14,3.94,5s-4.75,5-8.14,5-5.14-2.13-3.94-5,4.76-5,8.14-5M218.69,88.83H208.52l13.27-28H232Z" style="fill:#fff"/><path d="M258.72,60.8l-3.8,8.36h-9l-3.37,7.45c-1.46,3.2-.13,3.78,4.75,3.89.87,0,1.85-.06,2.75-.11l-3.84,8.47h-4.34c-9.7,0-12.17-4.69-9.78-10l13.61-30.07h9.5l-5.41,12Z" style="fill:#fff"/><path d="M29.94,13.69c-10,0-15.65,4-15.65,11.87,0,8,5.69,11.91,15.65,11.91,8.28,0,12.1-2.11,14.51-4.41l2.79,3.33c-3.78,3.44-9.22,5-17.21,5-12,0-21-5-21-15.79C9,15.06,18.12,9.72,30,9.72c7.6,0,12.9,1.37,16.72,4.56L44,17.66c-2.9-2.4-6.43-4-14-4" style="fill:#fff"/><path d="M71,41.44c-11.76,0-21.53-5-21.53-15.79C49.49,15.06,59.35,9.72,71,9.72S92.35,15,92.35,25.56c0,10.79-9.55,15.88-21.33,15.88m-.09-4c9.86,0,16.13-3.87,16.13-11.82,0-7.74-6.27-12-16.13-12S54.79,17.81,54.79,25.56c0,7.94,6.28,11.91,16.14,11.91" style="fill:#fff"/><path d="M134.28,19.72c0,6.52-4.86,10.1-15,10.1h-16v11h-5V10.26h21.09c10.14,0,15,2.94,15,9.46m-31,6h15.5c7.16,0,10.35-1.57,10.35-5.78s-2.85-5.55-10.35-5.55h-15.5Z" style="fill:#fff"/><path d="M176.55,19.72c0,6.52-4.86,10.1-15,10.1h-16v11h-5V10.26h21.09c10.14,0,15,2.94,15,9.46m-31,6H161c7.16,0,10.34-1.57,10.34-5.78s-2.83-5.55-10.34-5.55H145.51Z" style="fill:#fff"/><polygon points="206.71 23.05 206.71 27.22 187.78 27.22 187.78 36.49 215.29 36.49 215.29 40.86 182.73 40.86 182.73 10.26 214.01 10.26 214.01 14.62 187.78 14.62 187.78 23.05 206.71 23.05" style="fill:#fff"/><path d="M252.41,40.86l-11-12.17H226.61V40.86h-5.05V10.26h21.38c9.66,0,14.71,2.69,14.71,9.12,0,5.2-3.63,8.24-10.44,9.07l11.23,12.41Zm-25.8-16.09h15.78c6.69,0,10.07-1.18,10.07-5.2s-3-5.15-10.07-5.15H226.61Z" style="fill:#fff"/><polygon points="14.83 48.67 184.46 48.79 164.22 89.08 172.68 56.86 14.83 48.67" style="fill:#fff"/></svg>