<?xml version="1.0" encoding="utf-8"?>
<!-- Generator: Adobe Illustrator 24.0.2, SVG Export Plug-In . SVG Version: 6.00 Build 0)  -->
<svg version="1.1" id="Layer_1" xmlns="http://www.w3.org/2000/svg" xmlns:xlink="http://www.w3.org/1999/xlink" x="0px" y="0px"
	 viewBox="0 0 301.4 98.5" style="enable-background:new 0 0 301.4 98.5;" xml:space="preserve">
<style type="text/css">
	.st0{fill:#541816;}
	.st1{fill:url(#SVGID_1_);}
	.st2{fill:url(#SVGID_2_);}
	.st3{fill:url(#SVGID_3_);}
	.st4{fill:url(#SVGID_4_);}
	.st5{fill:url(#SVGID_5_);}
	.st6{fill:url(#SVGID_6_);}
	.st7{fill:url(#SVGID_7_);}
	.st8{fill:url(#SVGID_8_);}
	.st9{fill:url(#SVGID_9_);}
	.st10{fill:url(#SVGID_10_);}
</style>
<g>
	<g>
		<path class="st0" d="M164,39.7l-1-0.7l-0.6-0.1V28.4h19.1c12.1,0,17.9-4.3,17.9-12c0-7.8-5.8-11.3-17.9-11.3h-22.1L158,3.3
			l-1.6,1.8v36.4l6,0L164,39.7z M162.5,10h18.4c8.9,0,12.3,1.6,12.3,6.6c0,5-3.8,6.9-12.3,6.9h-18.4V10z"/>
		<path class="st0" d="M113.7,39.7l-1.6-0.8V28.4h19.1c12.1,0,17.9-4.3,17.9-12c0-7.8-5.8-11.3-17.9-11.3l-21.1,0l0-0.2l-2.4-1.6
			l-1.6,1.8v36.4h6L113.7,39.7z M112.2,10h18.4c8.9,0,12.3,1.6,12.3,6.6c0,5-3.8,6.9-12.3,6.9h-18.4V10z"/>
		<path class="st0" d="M237.5,74.9l2.3-1.4l-0.4-2.5l0,0l2.9-6h-13.4c1.4-2.8,3.2-4.3,7.6-4.3h8l2.3-1.4c0,0-0.5-0.9-0.9-1.5l3.4-7
			h-4.8c-14-0.1-22.5,2.5-27.1,11.9L200,98.3h12.6l2.3-1.4l-0.4-2.5h0l9.5-19.5H237.5z"/>
		<path class="st0" d="M260,62.1c4,0,8.3-2.5,9.7-5.9c1.4-3.4-0.7-5.9-4.7-5.9c-4,0-8.3,2.5-9.7,5.9C253.9,59.6,256,62.1,260,62.1z"
			/>
		<polygon class="st0" points="264.6,64.9 255.1,64.9 255.2,64.7 254.8,63.5 252.5,64.9 236.7,98.2 248.8,98.2 251.1,96.8 250,95.7 
					"/>
		<path class="st0" d="M285.8,64.9l6.4-14.2h-8.1l-0.9-1.4l-2.3,1.4l-16.2,35.8c-2.8,6.3,0.1,11.9,11.6,11.9h5.2l2.3-1.4L283,95
			l3.1-6.8c-1.1,0.1-2.2,0.1-3.3,0.1c-5.8-0.1-7.4-0.8-5.7-4.6l4-8.9h10.8l2.3-1.4l-0.9-1.6l3.1-6.9H285.8z"/>
		<path class="st0" d="M45.5,36.2l-3.3-4c-2.9,2.7-7.4,5.3-17.3,5.3c-11.9,0-18.6-4.6-18.6-14.2c0-9.3,6.8-14.1,18.6-14.1
			c9,0,13.2,1.9,16.7,4.7l3.3-4C40.4,6.1,34.1,4.4,25,4.4c-14.2,0-25,6.4-25,19c0,12.8,10.7,18.8,25,18.8
			C34.5,42.2,41,40.3,45.5,36.2z"/>
		<path class="st0" d="M73.8,42.2c14,0,25.4-6.1,25.4-18.9c0-12.6-11.6-18.8-25.4-18.8c-13.9,0-25.6,6.4-25.6,19
			C48.2,36.2,59.8,42.2,73.8,42.2z M73.7,9.2c11.7,0,19.2,5,19.2,14.2c0,9.5-7.5,14.1-19.2,14.1c-11.7,0-19.2-4.7-19.2-14.2
			C54.5,14.1,62,9.2,73.7,9.2z"/>
		<polygon class="st0" points="36.7,50.4 36.6,49.9 34.5,50 32.2,49.6 21.7,49.3 8.5,49 6.4,50.4 6.2,50.4 6.3,50.4 6.3,50.4 
			6.5,50.4 194.1,60.2 184,98.5 186.3,97.1 188.9,90.6 189.5,87.5 208.1,50.6 		"/>
		<polygon class="st0" points="247.1,39.7 245.9,38.4 245.5,38.4 245.5,36.3 212.8,36.3 212.8,25.3 235.3,25.3 235.3,25.3 
			235.3,25.3 236.9,23.5 235.7,22.1 235.3,22.2 235.3,20.3 212.8,20.3 212.8,10.3 244,10.3 244,10.3 244,10.3 245.6,8.5 244.4,7.1 
			244,7.2 244,5.1 209.7,5.1 210,4.3 208.3,3.3 206.8,5.1 206.8,41.5 245.5,41.5 		"/>
		<path class="st0" d="M295.9,38.7l-1.6,0l-10.8-12c8.1-1,12.4-4.6,12.4-10.8c0-7.6-6-10.8-17.5-10.8l-22.9,0l0.1-0.8l-1.1-1
			L253,5.1v36.4h6l1.6-1.8l-1.6-1.2V27h17.6l13.1,14.5h7.2l1.6-1.8L295.9,38.7z M259,22.4V10h18.8c8.4,0,12,1.3,12,6.1
			c0,4.8-4,6.2-12,6.2H259z"/>
	</g>
	<g>
		<g>
			
				<linearGradient id="SVGID_1_" gradientUnits="userSpaceOnUse" x1="296.4268" y1="94.0519" x2="87.7506" y2="33.7409" gradientTransform="matrix(1 0 0 1 3.0346 0)">
				<stop  offset="5.618000e-03" style="stop-color:#541817"/>
				<stop  offset="8.427000e-02" style="stop-color:#541816"/>
				<stop  offset="0.382" style="stop-color:#8D5127"/>
				<stop  offset="0.6871" style="stop-color:#D4AD86"/>
				<stop  offset="0.8835" style="stop-color:#A76C39"/>
				<stop  offset="0.9551" style="stop-color:#995825"/>
			</linearGradient>
			<path class="st1" d="M202.3,96.9l17.5-35.6c4.6-9.4,13.1-12,27.1-11.9h4.8l-4.9,9.9h-8c-4.3,0-6.2,1.6-7.6,4.3h13.4l-4.9,9.9
				h-13.4l-11.5,23.3H202.3z"/>
			<linearGradient id="SVGID_2_" gradientUnits="userSpaceOnUse" x1="301.6032" y1="86.6504" x2="92.9142" y2="26.3357">
				<stop  offset="5.618000e-03" style="stop-color:#541817"/>
				<stop  offset="8.427000e-02" style="stop-color:#541816"/>
				<stop  offset="0.382" style="stop-color:#8D5127"/>
				<stop  offset="0.6871" style="stop-color:#D4AD86"/>
				<stop  offset="0.8835" style="stop-color:#A76C39"/>
				<stop  offset="0.9551" style="stop-color:#995825"/>
			</linearGradient>
			<path class="st2" d="M267.3,48.8c4,0,6.1,2.5,4.7,5.9c-1.4,3.4-5.7,5.9-9.7,5.9c-4,0-6.1-2.5-4.7-5.9
				C259.1,51.4,263.3,48.8,267.3,48.8 M251.1,96.8H239l15.8-33.3h12.1L251.1,96.8z"/>
			
				<linearGradient id="SVGID_3_" gradientUnits="userSpaceOnUse" x1="300.8946" y1="78.5923" x2="92.2338" y2="18.2857" gradientTransform="matrix(1 0 0 1 3.0346 0)">
				<stop  offset="5.618000e-03" style="stop-color:#541817"/>
				<stop  offset="8.427000e-02" style="stop-color:#541816"/>
				<stop  offset="0.382" style="stop-color:#8D5127"/>
				<stop  offset="0.6871" style="stop-color:#D4AD86"/>
				<stop  offset="0.8835" style="stop-color:#A76C39"/>
				<stop  offset="0.9551" style="stop-color:#995825"/>
			</linearGradient>
			<path class="st3" d="M298.8,63.5l-4.5,10h-10.8l-4,8.9c-1.7,3.8-0.2,4.5,5.7,4.6c1,0,2.2-0.1,3.3-0.1l-4.6,10.1h-5.2
				c-11.5,0-14.5-5.6-11.6-11.9l16.2-35.8h11.3l-6.4,14.2H298.8z"/>
			
				<linearGradient id="SVGID_4_" gradientUnits="userSpaceOnUse" x1="294.7813" y1="99.7729" x2="86.0977" y2="39.4597" gradientTransform="matrix(1 0 0 1 3.0346 0)">
				<stop  offset="5.618000e-03" style="stop-color:#541817"/>
				<stop  offset="8.427000e-02" style="stop-color:#541816"/>
				<stop  offset="0.382" style="stop-color:#8D5127"/>
				<stop  offset="0.6871" style="stop-color:#D4AD86"/>
				<stop  offset="0.8835" style="stop-color:#A76C39"/>
				<stop  offset="0.9551" style="stop-color:#995825"/>
			</linearGradient>
			<path class="st4" d="M26.5,7.4c-11.9,0-18.6,4.8-18.6,14.1c0,9.6,6.8,14.2,18.6,14.2c9.9,0,14.4-2.5,17.3-5.3l3.3,4
				c-4.5,4.1-11,6-20.5,6c-14.3,0-25-6-25-18.8c0-12.6,10.9-19,25-19c9,0,15.3,1.6,19.9,5.4l-3.3,4C39.7,9.3,35.5,7.4,26.5,7.4"/>
			<linearGradient id="SVGID_5_" gradientUnits="userSpaceOnUse" x1="301.5163" y1="86.9425" x2="92.8379" y2="26.6308">
				<stop  offset="5.618000e-03" style="stop-color:#541817"/>
				<stop  offset="8.427000e-02" style="stop-color:#541816"/>
				<stop  offset="0.382" style="stop-color:#8D5127"/>
				<stop  offset="0.6871" style="stop-color:#D4AD86"/>
				<stop  offset="0.8835" style="stop-color:#A76C39"/>
				<stop  offset="0.9551" style="stop-color:#995825"/>
			</linearGradient>
			<path class="st5" d="M75.4,40.4c-14,0-25.6-6-25.6-18.8c0-12.6,11.7-19,25.6-19c13.8,0,25.4,6.2,25.4,18.8
				C100.8,34.4,89.4,40.4,75.4,40.4 M75.3,35.7c11.7,0,19.2-4.6,19.2-14.1c0-9.2-7.5-14.2-19.2-14.2c-11.7,0-19.2,4.9-19.2,14.1
				C56.1,31,63.5,35.7,75.3,35.7"/>
			<linearGradient id="SVGID_6_" gradientUnits="userSpaceOnUse" x1="305.2153" y1="74.1216" x2="96.5437" y2="13.8119">
				<stop  offset="5.618000e-03" style="stop-color:#541817"/>
				<stop  offset="8.427000e-02" style="stop-color:#541816"/>
				<stop  offset="0.382" style="stop-color:#8D5127"/>
				<stop  offset="0.6871" style="stop-color:#D4AD86"/>
				<stop  offset="0.8835" style="stop-color:#A76C39"/>
				<stop  offset="0.9551" style="stop-color:#995825"/>
			</linearGradient>
			<path class="st6" d="M150.7,14.6c0,7.8-5.8,12-17.8,12h-19.1v13.1h-6V3.3l25.1,0C144.9,3.3,150.7,6.8,150.7,14.6 M113.7,21.8
				h18.4c8.5,0,12.3-1.9,12.3-6.9c0-5-3.4-6.6-12.3-6.6h-18.4V21.8z"/>
			<linearGradient id="SVGID_7_" gradientUnits="userSpaceOnUse" x1="309.0999" y1="60.7065" x2="100.421" y2="0.3947">
				<stop  offset="5.618000e-03" style="stop-color:#541817"/>
				<stop  offset="8.427000e-02" style="stop-color:#541816"/>
				<stop  offset="0.382" style="stop-color:#8D5127"/>
				<stop  offset="0.6871" style="stop-color:#D4AD86"/>
				<stop  offset="0.8835" style="stop-color:#A76C39"/>
				<stop  offset="0.9551" style="stop-color:#995825"/>
			</linearGradient>
			<path class="st7" d="M201,14.6c0,7.8-5.8,12-17.9,12H164v13.1h-6V3.3h25.1C195.2,3.3,201,6.8,201,14.6 M164,21.8h18.4
				c8.5,0,12.3-1.9,12.3-6.9c0-5-3.4-6.6-12.3-6.6H164V21.8z"/>
			
				<linearGradient id="SVGID_8_" gradientUnits="userSpaceOnUse" x1="310.1888" y1="46.4558" x2="101.5001" y2="-13.8589" gradientTransform="matrix(1 0 0 1 3.0346 0)">
				<stop  offset="5.618000e-03" style="stop-color:#541817"/>
				<stop  offset="8.427000e-02" style="stop-color:#541816"/>
				<stop  offset="0.382" style="stop-color:#8D5127"/>
				<stop  offset="0.6871" style="stop-color:#D4AD86"/>
				<stop  offset="0.8835" style="stop-color:#A76C39"/>
				<stop  offset="0.9551" style="stop-color:#995825"/>
			</linearGradient>
			<polygon class="st8" points="236.9,18.5 236.9,23.5 214.3,23.5 214.3,34.5 247.1,34.5 247.1,39.7 208.3,39.7 208.3,3.3 
				245.6,3.3 245.6,8.5 214.3,8.5 214.3,18.5 			"/>
			<linearGradient id="SVGID_9_" gradientUnits="userSpaceOnUse" x1="316.5503" y1="34.9271" x2="107.8755" y2="-25.3835">
				<stop  offset="5.618000e-03" style="stop-color:#541817"/>
				<stop  offset="8.427000e-02" style="stop-color:#541816"/>
				<stop  offset="0.382" style="stop-color:#8D5127"/>
				<stop  offset="0.6871" style="stop-color:#D4AD86"/>
				<stop  offset="0.8835" style="stop-color:#A76C39"/>
				<stop  offset="0.9551" style="stop-color:#995825"/>
			</linearGradient>
			<path class="st9" d="M291.2,39.7l-13.1-14.5h-17.6v14.5h-6V3.3H280c11.5,0,17.5,3.2,17.5,10.8c0,6.2-4.3,9.8-12.4,10.8l13.4,14.8
				H291.2z M260.5,20.6h18.8c7.9,0,12-1.4,12-6.2c0-4.8-3.6-6.1-12-6.1h-18.8V20.6z"/>
			
				<linearGradient id="SVGID_10_" gradientUnits="userSpaceOnUse" x1="293.7728" y1="103.2465" x2="85.0908" y2="42.9339" gradientTransform="matrix(1 0 0 1 3.0346 0)">
				<stop  offset="5.618000e-03" style="stop-color:#541817"/>
				<stop  offset="8.427000e-02" style="stop-color:#541816"/>
				<stop  offset="0.382" style="stop-color:#8D5127"/>
				<stop  offset="0.6871" style="stop-color:#D4AD86"/>
				<stop  offset="0.8835" style="stop-color:#A76C39"/>
				<stop  offset="0.9551" style="stop-color:#995825"/>
			</linearGradient>
			<polygon class="st10" points="8.5,49 210.4,49.2 186.3,97.1 196.4,58.8 			"/>
		</g>
	</g>
	<polygon class="st0" points="15.1,58.2 184.8,67.8 178.4,95 176,74.2 	"/>
	<polygon class="st0" points="24.7,67.3 170.1,80.3 172.5,94.9 162.8,85.1 	"/>
	<g>
		<path class="st0" d="M293.8,94.1c0,1.6-1.2,2.8-2.8,2.8c-1.6,0-2.8-1.2-2.8-2.8c0-1.5,1.3-2.8,2.8-2.8
			C292.6,91.4,293.8,92.6,293.8,94.1z M288.8,94.1c0,1.2,0.9,2.2,2.2,2.2c1.2,0,2.1-1,2.1-2.2c0-1.2-0.9-2.2-2.1-2.2
			S288.8,92.9,288.8,94.1z M290.5,95.6h-0.6v-2.8c0.3-0.1,0.6-0.1,1.1-0.1c0.5,0,0.8,0.1,1,0.2c0.2,0.1,0.3,0.3,0.3,0.6
			c0,0.3-0.2,0.5-0.6,0.6v0c0.3,0.1,0.4,0.3,0.5,0.7c0.1,0.4,0.1,0.6,0.2,0.7h-0.7c-0.1-0.1-0.1-0.4-0.2-0.7
			c-0.1-0.3-0.2-0.4-0.6-0.4h-0.3V95.6z M290.5,94h0.3c0.4,0,0.6-0.1,0.6-0.4c0-0.3-0.2-0.4-0.6-0.4c-0.2,0-0.3,0-0.4,0V94z"/>
	</g>
</g>
</svg>
