<?xml version="1.0" encoding="utf-8"?>
<!-- Generator: Adobe Illustrator 24.0.2, SVG Export Plug-In . SVG Version: 6.00 Build 0)  -->
<svg version="1.1" id="Layer_1" xmlns="http://www.w3.org/2000/svg" xmlns:xlink="http://www.w3.org/1999/xlink" x="0px" y="0px"
	 viewBox="0 0 414.6 45.3" style="enable-background:new 0 0 414.6 45.3;" xml:space="preserve">
<style type="text/css">
	.st0{fill:#020202;}
</style>
<path class="st0" d="M108.5,23.8h25.7v-3h-25.7V3h28.6V0h-31.9v44.8h32.2v-3h-28.9V23.8z M207.2,27.1L197,11.2h-6.3v33.6h5.9v-24
	l10.5,15.7h0.2l10.6-15.8v24.1h5.9V11.2h-6.3L207.2,27.1z M175.8,44.8h5.9V11.2h-5.9V44.8z M151.6,11.2h-5.9v33.6h23.5v-5.3h-17.7
	V11.2z M74.6,41.2L57,0h-3.7l19.7,45.1H76L95.7,0h-3.5L74.6,41.2z M3.3,0H0v44.8h29.6v-3H3.3V0z M40.1,44.8h3.3V0h-3.3V44.8z
	 M361.7,28.8c-0.9-0.8-2-1.4-3.4-2c-1.4-0.5-2.9-1-4.7-1.5c-1.6-0.4-2.9-0.8-4-1.1c-1-0.3-1.9-0.7-2.5-1.1c-0.6-0.4-1-0.8-1.2-1.3
	c-0.2-0.5-0.3-1.1-0.3-1.7v-0.1c0-1.1,0.5-2.1,1.4-2.8c1-0.8,2.3-1.2,4-1.2c1.5,0,3.1,0.3,4.6,0.9c1.5,0.6,3,1.4,4.6,2.6l3.2-4.5
	c-1.7-1.4-3.6-2.4-5.5-3.1c-2-0.7-4.2-1.1-6.7-1.1c-1.7,0-3.2,0.2-4.6,0.7c-1.4,0.5-2.6,1.1-3.6,2c-1,0.8-1.8,1.9-2.4,3.1
	c-0.6,1.2-0.9,2.5-0.9,4v0.1c0,1.5,0.3,2.8,0.7,3.9c0.5,1.1,1.2,2,2.2,2.8c0.9,0.8,2.1,1.4,3.5,1.9c1.4,0.5,3,1,4.8,1.4
	c1.6,0.4,2.8,0.7,3.8,1.1c1,0.4,1.8,0.7,2.3,1.2c0.6,0.4,0.9,0.9,1.2,1.3c0.2,0.5,0.3,1,0.3,1.6v0.1c0,1.3-0.5,2.3-1.6,3.1
	c-1.1,0.8-2.5,1.2-4.3,1.2c-2.1,0-4-0.4-5.7-1.1c-1.7-0.8-3.3-1.8-4.9-3.2l-3.6,4.2c2,1.8,4.2,3.2,6.6,4.1c2.4,0.9,4.9,1.3,7.4,1.3
	c1.8,0,3.4-0.2,4.8-0.7c1.5-0.4,2.7-1.1,3.8-2s1.9-1.9,2.5-3.2c0.6-1.2,0.9-2.7,0.9-4.2v-0.1c0-1.4-0.2-2.6-0.7-3.6
	C363.2,30.5,362.6,29.6,361.7,28.8z M392.4,28.8c-0.9-0.8-2-1.4-3.4-2c-1.4-0.5-2.9-1-4.7-1.5c-1.6-0.4-2.9-0.8-4-1.1
	c-1-0.3-1.9-0.7-2.5-1.1c-0.6-0.4-1-0.8-1.2-1.3c-0.2-0.5-0.3-1.1-0.3-1.7v-0.1c0-1.1,0.5-2.1,1.4-2.8c1-0.8,2.3-1.2,4-1.2
	c1.5,0,3.1,0.3,4.6,0.9c1.5,0.6,3,1.4,4.6,2.6l3.2-4.5c-1.7-1.4-3.6-2.4-5.5-3.1c-2-0.7-4.2-1.1-6.7-1.1c-1.7,0-3.2,0.2-4.6,0.7
	c-1.4,0.5-2.6,1.1-3.6,2c-1,0.8-1.8,1.9-2.4,3.1c-0.6,1.2-0.9,2.5-0.9,4v0.1c0,1.5,0.3,2.8,0.7,3.9c0.5,1.1,1.2,2,2.2,2.8
	c0.9,0.8,2.1,1.4,3.5,1.9c1.4,0.5,3,1,4.8,1.4c1.6,0.4,2.8,0.7,3.8,1.1c1,0.4,1.8,0.7,2.3,1.2c0.6,0.4,0.9,0.9,1.2,1.3
	s0.3,1,0.3,1.6v0.1c0,1.3-0.5,2.3-1.6,3.1c-1.1,0.8-2.5,1.2-4.3,1.2c-2.1,0-4-0.4-5.7-1.1c-1.7-0.8-3.3-1.8-4.9-3.2l-3.6,4.2
	c2,1.8,4.2,3.2,6.6,4.1c2.4,0.9,4.9,1.3,7.4,1.3c1.8,0,3.4-0.2,4.8-0.7c1.5-0.4,2.7-1.1,3.8-2s1.9-1.9,2.5-3.2s0.9-2.7,0.9-4.2v-0.1
	c0-1.4-0.2-2.6-0.7-3.6C394,30.5,393.3,29.6,392.4,28.8z M400.1,38.9h2.3v5.9h1.1v-5.9h2.3v-1.1h-5.7V38.9z M412.9,37.8l-2.1,4.9
	l-2-4.9H407v7h1.1v-5.9h0l2.3,5.9h0.7l2.4-5.9h0v5.9h1.1v-7H412.9z M284.6,11.2h-5.9v33.6h23.5v-5.3h-17.7V11.2z M314.3,30.5h16.9
	v-5.3h-16.9v-8.6h19v-5.3h-24.9v33.6h25.1v-5.3h-19.3V30.5z M245.2,16.7h10.7v28.1h6V16.7h10.7v-5.5h-27.3V16.7z M232.7,44.8h5.9
	V11.2h-5.9V44.8z"/>
</svg>
