<svg id="6a83c606-9d75-48d0-9edd-fbff7cc6bc48" data-name="Layer 1" xmlns="http://www.w3.org/2000/svg" viewBox="0 0 17 17"><title>Vector Smart Object11</title><path d="M15.27,8.75q0,2.09,0,4.18a2.59,2.59,0,0,1-2.58,2.57H4.38a2.63,2.63,0,0,1-2.6-2.59q0-4.15,0-8.31A2.67,2.67,0,0,1,4.36,2h8.36a2.63,2.63,0,0,1,2.54,2.56c0,1.39,0,2.79,0,4.18ZM5,7.46l-.31,0c-.4,0-.8,0-1.2,0s-.36.07-.36.35c0,1.66,0,3.32,0,5a1.33,1.33,0,0,0,1.4,1.39c2.64,0,5.28,0,7.93,0a1.29,1.29,0,0,0,1.42-1.43q0-2.46,0-4.92a.52.52,0,0,0,0-.19c0-.06-.09-.16-.14-.16H12a3.66,3.66,0,0,1-1.61,4.5,3.39,3.39,0,0,1-3.89-.07A3.67,3.67,0,0,1,5,7.46m3.49-1a2.32,2.32,0,1,0,2.33,2.29A2.29,2.29,0,0,0,8.53,6.46m5.12-1.72h0c0-.29,0-.58,0-.87s-.05-.23-.22-.23H11.68c-.18,0-.24.07-.24.24,0,.58,0,1.16,0,1.75,0,.15.06.21.21.21h1.75c.17,0,.22-.07.21-.23s0-.58,0-.87" style="fill:#fff"/><rect x="2.17" y="0.1" width="109.11" height="16.8" style="fill:none"/></svg>