<svg id="2d4062c1-772b-400e-8341-6c1527705dfe" data-name="Layer 1" xmlns="http://www.w3.org/2000/svg" viewBox="0 0 17 17"><title>pinterest</title><path d="M8.84.53C4.47.53,2.27,3.66,2.27,6.27A3.54,3.54,0,0,0,4.15,9.78a.32.32,0,0,0,.46-.23l.19-.74a.45.45,0,0,0-.13-.51,2.64,2.64,0,0,1-.61-1.8A4.35,4.35,0,0,1,8.59,2.1c2.47,0,3.82,1.51,3.82,3.52,0,2.65-1.17,4.89-2.91,4.89A1.42,1.42,0,0,1,8,8.73a19.74,19.74,0,0,0,.81-3.26A1.23,1.23,0,0,0,7.62,4.09c-1,0-1.77,1-1.77,2.38a3.53,3.53,0,0,0,.29,1.45L5,12.93a10.29,10.29,0,0,0,0,3.49.12.12,0,0,0,.22.05,9.79,9.79,0,0,0,1.66-3c.11-.41.65-2.52.65-2.52A2.64,2.64,0,0,0,9.7,12.09c3,0,5-2.69,5-6.3A5.49,5.49,0,0,0,8.84.53" style="fill:#fff"/><rect x="2.17" y="0.1" width="109.11" height="16.8" style="fill:none"/></svg>