<svg id="76860492-6a6a-4410-bb9a-dcf1727b3950" data-name="Layer 1" xmlns="http://www.w3.org/2000/svg" viewBox="0 0 17 17"><title>twitter</title><path d="M16.64,3.82a6.58,6.58,0,0,1-1.89.52,3.3,3.3,0,0,0,1.44-1.82,6.54,6.54,0,0,1-2.08.8,3.29,3.29,0,0,0-5.59,3A9.31,9.31,0,0,1,1.75,2.88a3.29,3.29,0,0,0,1,4.38,3.27,3.27,0,0,1-1.49-.41v0a3.29,3.29,0,0,0,2.63,3.22,3.31,3.31,0,0,1-.86.11,3.38,3.38,0,0,1-.62-.06,3.29,3.29,0,0,0,3.06,2.28,6.58,6.58,0,0,1-4.08,1.4,6.77,6.77,0,0,1-.78,0,9.29,9.29,0,0,0,5,1.48A9.28,9.28,0,0,0,15,5.94c0-.14,0-.28,0-.42a6.65,6.65,0,0,0,1.64-1.7" style="fill:#fff"/><rect x="2.17" y="0.1" width="109.11" height="16.8" style="fill:none"/></svg>