<?xml version="1.0" encoding="utf-8"?>
<!-- Generator: Adobe Illustrator 24.0.2, SVG Export Plug-In . SVG Version: 6.00 Build 0)  -->
<svg version="1.1" id="image" xmlns="http://www.w3.org/2000/svg" xmlns:xlink="http://www.w3.org/1999/xlink" x="0px" y="0px"
	 viewBox="0 0 1607.2 1614.4" style="enable-background:new 0 0 1607.2 1614.4;" xml:space="preserve">
<style type="text/css">
	.st0{fill:white;}
</style>
<path class="st0" d="M682.8,1348.2c-1.8-0.7-7.3-2.2-16.5-4.5l-17.8-4.4l-7.1,28.6l16.8,4.2c10.9,2.7,17.9,4,20.8,3.7
	c2.9-0.2,5.5-1.3,7.6-3.2c2.1-1.9,3.6-4.5,4.4-7.9c0.9-3.8,0.7-7.1-0.8-10C688.9,1352,686.4,1349.8,682.8,1348.2z"/>
<path class="st0" d="M973.8,253.3c-2.8-1.9-9.4-4.2-19.7-7l-18.3-4.9l-8,30l21,5.6c8.2,2.2,13.4,3.4,15.7,3.5
	c3.5,0.3,6.7-0.5,9.4-2.3c2.8-1.8,4.7-4.7,5.8-8.7c0.9-3.4,0.8-6.4-0.2-9.2C978.4,257.5,976.6,255.2,973.8,253.3z"/>
<g>
	<path class="st0" d="M439.1,305.9c-8.6-1.6-16.8,0.6-24.4,6.6c-7.6,6-11.7,13.4-12.3,22.3c-0.6,8.9,3.2,18.6,11.5,29.1
		c8.1,10.4,16.7,16.4,25.6,18c9,1.6,17.1-0.5,24.5-6.2c7.4-5.8,11.3-13.1,11.9-22.2c0.6-9-3.3-18.8-11.6-29.4
		C456.1,313.5,447.7,307.5,439.1,305.9z"/>
	<path class="st0" d="M803.2,80.1C449.3,80.1,154.5,333.3,90,668.3h284.9C433.2,487.5,603,356.6,803.2,356.6
		c200.3,0,370,130.9,428.3,311.8h284.9C1451.9,333.3,1157.1,80.1,803.2,80.1z M404.3,456.9l-71.1-57.6l56.6,75.5l-14.2,17.6
		L290,452.7l71.1,57.6l-13.7,16.9L257,454l22.1-27.3l74.9,33.5l-48.5-66.1l22.2-27.4l90.3,73.2L404.3,456.9z M498.8,353.7
		c-1.5,14.6-9,27.2-22.4,37.7c-13.6,10.6-27.7,15-42.2,12.9c-14.5-2-27.5-10.4-38.9-24.9c-7.3-9.3-12-18.3-14.2-26.8
		c-1.5-6.3-2-12.7-1.3-19.2c0.7-6.5,2.5-12.3,5.4-17.5c3.8-6.9,9.5-13.2,16.9-19.1c13.5-10.6,27.6-14.8,42.2-12.8
		c14.6,2,27.8,10.5,39.4,25.4C495.3,324.3,500.3,339,498.8,353.7z M597.5,318.2L523.9,268l30.8,69.3l-19.9,8.9l-47.3-106.2l20.9-9.3
		l75,51.6l-31.6-70.9l19.9-8.9L619,308.6L597.5,318.2z M642.9,298.2l-24.2-113.7l84.3-17.9l4.1,19.2l-61.3,13l5.4,25.2l57.1-12.1
		l4.1,19.1l-57.1,12.1l6.6,31l63.5-13.5l4.1,19.2L642.9,298.2z M801.2,228l0.9,48.8l-23.4,0.4l-0.9-48.9l-43.7-66.6l27.5-0.5
		l28.2,45.5l26-46.4l27-0.5L801.2,228z M982.4,299.8c-4.9,1.8-10.4,2.2-16.6,1.3c-3.9-0.6-13.1-2.8-27.5-6.6L900,284.2L930.1,172
		l44.9,12c8.9,2.4,15.4,4.5,19.6,6.5c4.2,1.9,7.7,4.5,10.5,7.8c2.8,3.3,4.8,7.2,6.1,11.7c1.3,4.5,1.2,9.2-0.1,14.1
		c-1.4,5.3-4.1,9.7-8.1,13.3c-4,3.6-8.8,5.9-14.2,6.8c6.3,3.8,10.7,8.6,13,14.4c2.4,5.8,2.7,11.9,1,18.4c-1.4,5.1-3.9,9.8-7.6,14
		C991.5,295,987.3,298,982.4,299.8z M1104.8,365l-22.8-11.6l2.9-28.1l-41.4-21.1l-20.5,19.2l-22.2-11.3l93.1-83l22.1,11.3
		L1104.8,365z M1180,420.5c-10.1-0.5-20-4.8-29.6-12.8c-11.8-9.9-18.1-22.1-19-36.6c-0.8-14.5,4.6-28.7,16.4-42.7
		c12.4-14.8,25.9-23.1,40.5-24.9c14.5-1.8,28,2.6,40.5,13c10.9,9.1,17,19.8,18.4,31.9c0.9,7.2-0.7,15.2-4.6,24.1l-21.4-10.7
		c2.8-5.5,3.7-11,2.6-16.5c-1.1-5.5-4-10.2-8.8-14.2c-6.6-5.5-14-7.7-22-6.4c-8.1,1.3-16.6,7.2-25.5,17.8
		c-9.4,11.3-14.2,21-14.1,29.1c0,8.2,3.3,15,9.8,20.4c4.8,4,10.2,6,16.2,5.8c6-0.1,12.5-2.9,19.4-8.1l12.8,20.1
		C1200.6,417.5,1190.2,421,1180,420.5z M1263.6,538.2l-17.8-24.6l25.4-57.9l-26.9-4l-28.4,20.6l-13.8-19l94-68.3l13.8,19l-41.8,30.3
		l69.6,8l18.5,25.5l-62.4-8.8L1263.6,538.2z"/>
</g>
<path class="st0" d="M803.2,1256.6c-200.3,0-370-130.9-428.3-311.8H90c64.6,335.1,359.4,588.2,713.3,588.2
	c353.9,0,648.7-253.2,713.3-588.2h-284.9C1173.2,1125.7,1003.5,1256.6,803.2,1256.6z M339.6,1104.4c-5.6-8.6-12.8-13.7-21.5-15.2
	c-8.8-1.5-18.5,1.2-29.2,8.2c-11.5,7.5-18.6,15.7-21,24.6c-2.5,8.9-1,17.5,4.4,25.8c2.7,4.1,6.2,7.7,10.5,10.8
	c4.3,3.1,8.6,5.4,12.8,6.9l12.4-8l-14.6-22.5l16.4-10.7l27.5,42.4l-38.8,25.2c-6.7-1.5-14.1-5.2-22.2-11.1
	c-8.1-5.9-14.8-12.8-20-20.8c-6.6-10.2-10.3-20.5-10.9-30.8c-0.6-10.4,1.8-20,7.3-29c5.5-9,12.9-16.5,22.3-22.6
	c10.1-6.6,20.6-10.3,31.2-11.2c10.7-0.8,20.7,1.4,30.3,6.9c7.3,4.1,14,10.9,20,20.2c7.9,12.1,11.5,23.2,10.8,33.3
	c-0.7,10.1-4.8,19.1-12.5,26.8l-16.3-17.2c3.9-4.5,6-9.5,6.3-15.1C344.9,1115.7,343.3,1110,339.6,1104.4z M412.4,1296.9
	c-4.9,3.3-10,5.1-15.2,5.6c-5.2,0.5-10.7-0.4-16.4-2.7c-5.7-2.3-11.9-6.6-18.5-13c-8-7.7-13.2-14.5-15.5-20.3
	c-2.3-5.8-3.3-11.4-2.8-16.6c0.4-5.3,1.9-9.9,4.2-13.8c3.5-5.9,9.8-13.5,18.8-22.8l43.1-44.6l16.9,16.3l-43.7,45.3
	c-6.9,7.2-11.2,12.1-12.9,14.6c-2.6,4.1-3.5,8.5-2.8,13.2c0.7,4.7,3.4,9.3,8.2,13.9c4.8,4.6,9.3,7.1,13.7,7.5
	c4.3,0.4,8.1-0.6,11.3-3c3.3-2.4,8.1-6.9,14.5-13.5l44.7-46.3l16.9,16.3l-42.4,43.9C424.6,1287,417.3,1293.7,412.4,1296.9z
	 M546,1405.9l-22.8-11.6l2.9-28.1l-41.4-21.1l-20.5,19.2l-22.2-11.3l93.1-83l22.1,11.3L546,1405.9z M714.9,1369.1
	c-2.1,8.5-6.4,14.8-12.7,19.1c-6.3,4.2-14.7,5.9-24.9,4.8c4.2,4.1,7.5,8.3,9.8,12.5c2.3,4.2,5.1,11.4,8.4,21.5l8.3,25.4l-27.2-6.8
	l-10.3-28.7c-3.7-10.2-6.3-16.7-7.9-19.6c-1.6-2.8-3.5-4.9-5.7-6.4c-2.2-1.4-5.9-2.8-11.2-4.1l-4.6-1.1l-11.7,47.1l-22.8-5.7
	l28.1-112.8l48,12c12.1,3,20.5,6.2,25.5,9.6c5,3.4,8.4,8.1,10.4,14.1C716.4,1356.2,716.5,1362.5,714.9,1369.1z M842,1455.4
	l-11.5-25.9L784,1432l-8.2,26.9l-24.9,1.3l39.1-118.5l24.8-1.3l52.6,113.6L842,1455.4z M992,1429.8l-65.9-60l20.9,72.9l-21,6
	l-32-111.7l22-6.3l67.1,61.5l-21.4-74.6l21-6l32,111.7L992,1429.8z M1103.8,1385.4l-49.7-82.8l-29.6,17.8l-10.1-16.9l79.2-47.6
	l10.1,16.9l-29.5,17.7l49.7,82.8L1103.8,1385.4z M1202.8,1319.2l-76.3-87.7l65-56.5l12.9,14.9l-47.3,41.1l16.9,19.4l44-38.3
	l12.8,14.8l-44,38.3l20.8,23.9l49-42.6l12.9,14.8L1202.8,1319.2z M1283.1,1085.8l-36,51.4l21.1,14.8l33.5-47.8l16,11.2l-33.5,47.8
	l25.9,18.1l37.2-53.2l16.1,11.2l-50.7,72.4l-95.2-66.7l49.4-70.6L1283.1,1085.8z"/>
<polygon class="st0" points="528.4,1345.4 533.7,1299.6 500.1,1330.9 "/>
<polygon class="st0" points="790.2,1412.1 821.9,1410.4 803.6,1368.2 "/>
<polygon class="st0" points="1087.2,304.4 1092.5,258.7 1058.9,290 "/>
<path class="st0" d="M980,205.8c-2.2-0.9-8.6-2.7-19.3-5.6l-13-3.5l-7,26l14.8,4c8.8,2.4,14.4,3.7,16.6,4c4,0.6,7.4,0.1,10.2-1.5
	c2.8-1.6,4.7-4.3,5.7-7.9c0.9-3.5,0.7-6.6-0.6-9.2C986.2,209.3,983.7,207.3,980,205.8z"/>
<path class="st0" d="M517,1116.3h60.7c11.9,0,21.5-1.1,28.6-3.4c9.5-3.1,17.1-7.3,22.6-12.8c7.4-7.2,13.1-16.6,17.1-28.2
	c3.3-9.5,4.9-20.9,4.9-34c0-15-1.7-27.6-5.2-37.8c-3.5-10.2-8.6-18.8-15.3-25.8c-6.7-7.1-14.7-12-24.1-14.7c-7-2-17.1-3-30.4-3H517
	V1116.3z M549.2,983.6h14.5c13.2,0,22,0.5,26.5,1.5c6,1.3,11,3.8,14.9,7.5c3.9,3.7,7,8.9,9.1,15.5c2.2,6.6,3.3,16.1,3.3,28.4
	c0,12.3-1.1,22.1-3.3,29.3c-2.2,7.1-5,12.3-8.4,15.4c-3.5,3.1-7.8,5.3-13,6.6c-4,1-10.5,1.5-19.5,1.5h-24.1V983.6z"/>
<path class="st0" d="M1049.2,1085.3c-5.2,4.4-13.1,6.6-23.5,6.6c-9.8,0-17.6-2.5-23.4-7.4c-5.8-4.9-9.6-12.7-11.5-23.2l-31.4,3.1
	c2.1,17.8,8.6,31.5,19.4,40.8c10.8,9.3,26.3,14,46.5,14c13.9,0,25.5-1.9,34.8-5.8c9.3-3.9,16.5-9.8,21.6-17.8
	c5.1-8,7.6-16.5,7.6-25.7c0-10.1-2.1-18.6-6.4-25.4c-4.3-6.9-10.2-12.3-17.7-16.3c-7.5-3.9-19.1-7.8-34.8-11.5
	c-15.7-3.7-25.6-7.3-29.6-10.7c-3.2-2.7-4.8-5.9-4.8-9.7c0-4.1,1.7-7.4,5.1-9.9c5.3-3.9,12.6-5.8,22-5.8c9.1,0,15.9,1.8,20.4,5.4
	c4.5,3.6,7.5,9.5,8.9,17.7l32.2-1.4c-0.5-14.7-5.8-26.4-16-35.2c-10.1-8.8-25.2-13.2-45.3-13.2c-12.3,0-22.7,1.9-31.4,5.5
	c-8.7,3.7-15.3,9.1-19.9,16.2c-4.6,7.1-6.9,14.7-6.9,22.8c0,12.6,4.9,23.4,14.7,32.1c7,6.2,19.1,11.5,36.4,15.8
	c13.4,3.3,22.1,5.7,25.8,7c5.5,1.9,9.4,4.2,11.6,6.9c2.2,2.6,3.3,5.8,3.3,9.6C1057.2,1075.8,1054.5,1080.9,1049.2,1085.3z"/>
<polygon class="st0" points="860.8,1049.1 860.8,1116.3 893,1116.3 893,1049.3 951.7,956.6 914.6,956.6 877.7,1019.7 840.1,956.6 
	802.3,956.6 "/>
<path class="st0" d="M724.2,956.6L662,1116.3h34.2l13.2-36.3h63.9l13.9,36.3h35.1l-64-159.7H724.2z M719.3,1053.1l21.6-59.3l22,59.3
	H719.3z"/>
<polygon class="st0" points="1412.9,778.3 1385.8,720.6 1358.6,778.3 1295.3,786.3 1341.9,829.9 1329.9,892.6 1385.8,861.8 
	1441.6,892.6 1429.6,829.9 1476.2,786.3 "/>
<polygon class="st0" points="247.8,778.3 220.7,720.6 193.5,778.3 130.2,786.3 176.8,829.9 164.8,892.6 220.7,861.8 276.5,892.6 
	264.5,829.9 311.1,786.3 "/>
<path class="st0" d="M803.2,11C363.9,11,7.6,367.3,7.6,806.6c0,439.3,356.3,795.6,795.6,795.6s795.6-356.3,795.6-795.6
	C1598.8,367.3,1242.5,11,803.2,11z M803.2,1556.1c-413.9,0-749.5-335.6-749.5-749.5c0-413.9,335.6-749.5,749.5-749.5
	c413.9,0,749.5,335.6,749.5,749.5C1552.7,1220.4,1217.1,1556.1,803.2,1556.1z"/>
<path class="st0" d="M648.6,836.9c-14.6,0-27.1-5-37.4-15c-10.4-9.9-16.7-24.2-19.1-43l-73.7,8.9c3.8,33.5,17.5,60.5,41.2,81.3
	c23.7,20.6,53.5,31,89.5,31c38,0,69.7-12.3,95.2-36.8c25.5-24.6,38.2-54.3,38.2-89.2c0-24.1-6.8-44.6-20.5-61.6
	c-13.7-17-31.8-28-54.6-32.9c38.1-20.7,57.2-48.6,57.2-83.5c0-24.6-9.4-46.7-28-66.2C714.2,506,684.2,494,646.7,494
	c-21.8,0-41.6,4.2-59.2,12.4c-17.6,8.2-31.4,19.5-41.2,33.9c-9.9,14.3-17.2,33.6-22.1,57.7l70.3,11.8c1.9-17.3,7.6-30.5,16.8-39.5
	c9.2-9.1,20.3-13.6,33.3-13.6c13.1,0,23.8,4,31.8,11.9c8,8,11.9,18.6,11.9,32c0,15.7-5.5,28.3-16.3,37.9
	c-10.8,9.4-26.6,13.9-47.2,13.4l-8.4,62c13.6-3.8,25.3-5.6,35-5.6c14.8,0,27.4,5.6,37.7,16.8c10.4,11.2,15.5,26.4,15.5,45.5
	c0,20.3-5.4,36.3-16.1,48.2C677.6,830.9,664.4,836.9,648.6,836.9z"/>
<path class="st0" d="M958.8,494c-38.5,0-68.5,13.6-90,40.7c-26,32.9-39.1,86.7-39.1,161.6c0,76.3,11.8,129.3,35.5,159
	c23.7,29.8,54.9,44.6,93.5,44.6c38.6,0,68.6-13.5,90.1-40.6c26-33,39.1-87,39.1-162.2c0-75.4-13-129.4-38.8-161.9
	C1027.5,507.8,997.4,494,958.8,494z M1000.4,796.4c-4,15.2-9.6,25.7-16.8,31.6c-7.2,5.9-15.5,8.9-24.7,8.9c-9.2,0-17.3-3-24.5-8.7
	c-7.1-5.8-13.1-17.4-17.8-34.9c-4.6-17.4-7-49.4-7-96.1c0-46.7,2.7-79.8,7.9-99.5c4-15.2,9.6-25.7,16.8-31.7
	c7.2-5.8,15.5-8.8,24.6-8.8c9.3,0,17.4,3,24.6,8.8c7.1,5.9,13,17.6,17.8,35c4.6,17.5,7,49.5,7,96.2
	C1008.2,743.9,1005.6,776.9,1000.4,796.4z"/>
</svg>
