<?xml version="1.0" encoding="utf-8"?>
<!-- Generator: Adobe Illustrator 24.0.2, SVG Export Plug-In . SVG Version: 6.00 Build 0)  -->
<svg version="1.1" id="Layer_1" xmlns="http://www.w3.org/2000/svg" xmlns:xlink="http://www.w3.org/1999/xlink" x="0px" y="0px"
	 viewBox="0 0 50 50" style="enable-background:new 0 0 50 50;" xml:space="preserve">
<style type="text/css">
	.st0{fill:url(#SVGID_1_);}
	.st1{fill:url(#SVGID_2_);}
</style>
<g>
	<linearGradient id="SVGID_1_" gradientUnits="userSpaceOnUse" x1="20.3099" y1="5.8314" x2="29.7969" y2="5.8314">
		<stop  offset="5.618000e-03" style="stop-color:#541817"/>
		<stop  offset="8.427000e-02" style="stop-color:#541816"/>
		<stop  offset="0.382" style="stop-color:#8C5127"/>
		<stop  offset="0.6871" style="stop-color:#D4AD85"/>
		<stop  offset="0.9431" style="stop-color:#9B5C29"/>
		<stop  offset="0.9551" style="stop-color:#985825"/>
	</linearGradient>
	<path class="st0" d="M25.1,10.6c2.6,0,4.7-2.1,4.7-4.7c0-2.6-2.1-4.7-4.7-4.7c-2.6,0-4.7,2.1-4.7,4.7C20.3,8.5,22.4,10.6,25.1,10.6
		L25.1,10.6z"/>
	<linearGradient id="SVGID_2_" gradientUnits="userSpaceOnUse" x1="11" y1="29.9421" x2="39.1472" y2="29.9421">
		<stop  offset="5.618000e-03" style="stop-color:#541817"/>
		<stop  offset="8.427000e-02" style="stop-color:#541816"/>
		<stop  offset="0.382" style="stop-color:#8C5127"/>
		<stop  offset="0.6871" style="stop-color:#D4AD85"/>
		<stop  offset="0.9431" style="stop-color:#9B5C29"/>
		<stop  offset="0.9551" style="stop-color:#985825"/>
	</linearGradient>
	<path class="st1" d="M11.5,23.9c0.4,0.5,1,0.7,1.6,0.7c0.5,0,1-0.2,1.4-0.5l5.9-5V46c0,1.2,1,2.1,2.2,2.1c1.2,0,2.1-1,2.1-2.2
		c0,0,0-11.2,0-14.9c0-0.2,0.1-0.5,0.5-0.5c0.4,0,0.5,0.4,0.5,0.5c0,3.8,0,14.9,0,14.9c0,1.2,0.9,2.1,2.1,2.2c1.2,0,2.1-0.9,2.1-2.1
		V19.1l5.9,5c0.4,0.3,0.9,0.5,1.4,0.5c0.6,0,1.2-0.3,1.6-0.7c0.8-0.9,0.7-2.2-0.2-3c0,0-7.3-6.1-9.7-8.3c-0.6-0.5-1.4-0.9-2.3-0.9
		h-1.1h-0.6h-1.1c-0.9,0-1.7,0.3-2.3,0.9c-2.4,2.1-9.7,8.3-9.7,8.3C10.9,21.7,10.7,23,11.5,23.9L11.5,23.9z"/>
</g>
</svg>
