<?xml version="1.0" encoding="utf-8"?>
<!-- Generator: Adobe Illustrator 24.0.2, SVG Export Plug-In . SVG Version: 6.00 Build 0)  -->
<svg version="1.1" id="Layer_1" xmlns="http://www.w3.org/2000/svg" xmlns:xlink="http://www.w3.org/1999/xlink" x="0px" y="0px"
	 viewBox="0 0 50 50" style="enable-background:new 0 0 50 50;" xml:space="preserve">
<style type="text/css">
	.st0{fill:url(#SVGID_1_);}
</style>
<linearGradient id="SVGID_1_" gradientUnits="userSpaceOnUse" x1="1.6" y1="25.4" x2="48" y2="25.4">
	<stop  offset="5.618000e-03" style="stop-color:#541817"/>
	<stop  offset="8.427000e-02" style="stop-color:#541816"/>
	<stop  offset="0.382" style="stop-color:#8C5127"/>
	<stop  offset="0.6871" style="stop-color:#D4AD85"/>
	<stop  offset="0.9431" style="stop-color:#9B5C29"/>
	<stop  offset="0.9551" style="stop-color:#985825"/>
</linearGradient>
<path class="st0" d="M47.8,17.7L38.1,8c-1-1-2.2-1.5-3.6-1.5h-4c-0.3,0-0.6,0.2-0.8,0.5c-0.8,2-2.8,3.4-4.9,3.4
	c-2.2,0-4.2-1.4-4.9-3.4c-0.1-0.3-0.4-0.5-0.8-0.5h-4c-1.4,0-2.6,0.5-3.6,1.5l-9.7,9.7c-0.2,0.2-0.2,0.4-0.2,0.6s0.1,0.4,0.2,0.6
	L8.1,25c0.2,0.2,0.4,0.2,0.6,0.2c0.2,0,0.4-0.1,0.6-0.2l3.3-3.3v21.8c0,0.4,0.4,0.8,0.8,0.8h22.9c0.4,0,0.8-0.4,0.8-0.8V21.7
	l3.3,3.3c0.3,0.3,0.8,0.3,1.1,0l6.2-6.2c0.2-0.2,0.2-0.4,0.2-0.6S47.9,17.8,47.8,17.7z"/>
</svg>
