<?xml version="1.0" encoding="utf-8"?>
<!-- Generator: Adobe Illustrator 24.0.2, SVG Export Plug-In . SVG Version: 6.00 Build 0)  -->
<svg version="1.1" id="Layer_1" xmlns="http://www.w3.org/2000/svg" xmlns:xlink="http://www.w3.org/1999/xlink" x="0px" y="0px"
	 viewBox="0 0 50 50" style="enable-background:new 0 0 50 50;" xml:space="preserve">
<style type="text/css">
	.st0{fill:url(#SVGID_1_);}
</style>
<g id="Layer_1_2_">
	<linearGradient id="SVGID_1_" gradientUnits="userSpaceOnUse" x1="2.3627" y1="24.756" x2="47" y2="24.756">
		<stop  offset="5.618000e-03" style="stop-color:#541817"/>
		<stop  offset="8.427000e-02" style="stop-color:#541816"/>
		<stop  offset="0.382" style="stop-color:#8C5127"/>
		<stop  offset="0.6871" style="stop-color:#D4AD85"/>
		<stop  offset="0.9431" style="stop-color:#9B5C29"/>
		<stop  offset="0.9551" style="stop-color:#985825"/>
	</linearGradient>
	<path class="st0" d="M36.3,25.6c-5.8,1-8.8,5.8-8.8,5.8s-6.1-3.4-10.8-0.8l-3.9,2.2c-0.2,0.1-0.3-0.1-0.3-0.2
		c0.5-1.2,1.6-2.7,3.8-4c0.3-0.2,0.4-0.5,0.3-0.8c-0.8-2.7-1.2-6.3-0.3-9.4c0.3-1.1,0.7-2.2,1-2.9c0.1-0.3,0.4-0.4,0.6-0.4l1.2,0
		c1.7,0,4.5-2.2,6.9-2.2c1.5,0,2.5-0.6,2.5-1.6c0-0.6-0.3-0.9-0.7-1.2c-0.3-0.2-0.4-0.7-0.1-1c0.3-0.3,0.5-0.6,0.5-1
		c0-0.8-1.2-1.6-3.7-4.7c-0.6-0.7-1.6-1.2-2.5-0.4c-1.2,0.9-6.8,5.2-8.1,6.3c-0.7,0.6-1.3,1.9-2.5,4.3c-1.1,2.4-5.9,9.2-7,12.3
		C3,29.4,2.1,36.7,2.4,38.5c0.3,1.9,4,4.4,5.3,4.8c1.3,0.4,4.4,1,7,1.7c2.6,0.7,6.1,2.1,9.9,2.1c4.8,0,9.6-2.9,14.5-2.9
		c1.9,0,7.8-2.9,7.8-12.6c0,0,0,0,0-0.1c0-3-2.3-5.4-5.2-5.9C40.3,25.3,38.4,25.3,36.3,25.6z"/>
</g>
</svg>
