<?xml version="1.0" encoding="utf-8"?>
<!-- Generator: Adobe Illustrator 24.0.2, SVG Export Plug-In . SVG Version: 6.00 Build 0)  -->
<svg version="1.1" id="Layer_1" xmlns="http://www.w3.org/2000/svg" xmlns:xlink="http://www.w3.org/1999/xlink" x="0px" y="0px"
	 viewBox="0 0 50 50" style="enable-background:new 0 0 50 50;" xml:space="preserve">
<style type="text/css">
	.st0{fill:url(#SVGID_1_);}
</style>
<g>
	<g>
		<linearGradient id="SVGID_1_" gradientUnits="userSpaceOnUse" x1="2.1638" y1="24.6" x2="47.0362" y2="24.6">
			<stop  offset="5.618000e-03" style="stop-color:#541817"/>
			<stop  offset="8.427000e-02" style="stop-color:#541816"/>
			<stop  offset="0.382" style="stop-color:#8C5127"/>
			<stop  offset="0.6871" style="stop-color:#D4AD85"/>
			<stop  offset="0.9431" style="stop-color:#9B5C29"/>
			<stop  offset="0.9551" style="stop-color:#985825"/>
		</linearGradient>
		<path class="st0" d="M2.2,46.5c0.1-1.9,2.1-12.2,3.4-18c0.5-2.6,0.8-5.2,0.8-7.8c0-5.3,1-7.2,1-7.2C10.1,7,15.5,10,18.3,8
			c2.5-1.8,1.6-5.8,1.6-5.8l9.4,0.1c0,0-0.9,3.6,1.6,5.4c2.8,2.1,8.2,0.2,10.9,6.7c0,0,1,1.9,1,7.2c0,2.6,0.3,5.2,0.8,7.8
			C44.9,35.2,47,45,47,46.9L43.2,47c0,0-4.2-12-5.5-16.7c-1.4-5.3-1.4-6.2-1.4-6.2s-1.7,4.4-1.7,11.4c0,5.2,1.2,4.2,1.4,11.3
			l-22.7-0.2c0.2-7.1,1.2-5.1,1.4-12.1c0.2-7-1.7-11.4-1.7-11.4s-0.1,0.8-1.4,6.2C10.3,34,6,46.5,6,46.5L2.2,46.5z"/>
	</g>
</g>
</svg>
