<?xml version="1.0" encoding="utf-8"?>
<!-- Generator: Adobe Illustrator 24.0.2, SVG Export Plug-In . SVG Version: 6.00 Build 0)  -->
<svg version="1.1" id="Layer_1" xmlns="http://www.w3.org/2000/svg" xmlns:xlink="http://www.w3.org/1999/xlink" x="0px" y="0px"
	 viewBox="0 0 50 50" style="enable-background:new 0 0 50 50;" xml:space="preserve">
<style type="text/css">
	.st0{fill:url(#SVGID_1_);}
</style>
<linearGradient id="SVGID_1_" gradientUnits="userSpaceOnUse" x1="24.3567" y1="3.6521" x2="25.3119" y2="44.7289">
	<stop  offset="5.618000e-03" style="stop-color:#541817"/>
	<stop  offset="8.427000e-02" style="stop-color:#541816"/>
	<stop  offset="0.382" style="stop-color:#8C5127"/>
	<stop  offset="0.6871" style="stop-color:#D4AD85"/>
	<stop  offset="0.9431" style="stop-color:#9B5C29"/>
	<stop  offset="0.9551" style="stop-color:#985825"/>
</linearGradient>
<path class="st0" d="M45.4,39.3c-1.7-0.5-3.3,0.6-6.2-0.1c-2.9-0.6-8.7-6.3-10.8-8.4c-2.1-2.1-6.1-5.9-7.2-9.4
	c-1.2-3.5,1.2-17.2,1.2-17.2c-5.7,0-5.7,0-9.8,0C8.6,4.2,3.4,4,3.4,4s2.8,14.5,3,17.7c0.2,3.2-3.2,13.1-3.1,15
	c0.1,1.9-0.2,4.7,3.1,6.3c3.3,1.6,12-1.4,15.9-1.3c3.9,0.1,12.9,3.3,17.1,3.4c2.7,0.1,2.9-0.7,3.9-1.1c1.3-0.4,2.7-0.8,3.5-1.5
	C47.6,41.7,46.8,39.7,45.4,39.3z"/>
</svg>
