<?xml version="1.0" encoding="utf-8"?>
<!-- Generator: Adobe Illustrator 24.0.2, SVG Export Plug-In . SVG Version: 6.00 Build 0)  -->
<svg version="1.1" id="Layer_1" xmlns="http://www.w3.org/2000/svg" xmlns:xlink="http://www.w3.org/1999/xlink" x="0px" y="0px"
	 viewBox="0 0 50 50" style="enable-background:new 0 0 50 50;" xml:space="preserve">
<style type="text/css">
	.st0{fill:url(#SVGID_1_);}
</style>
<linearGradient id="SVGID_1_" gradientUnits="userSpaceOnUse" x1="8.4966" y1="24.6" x2="42.2452" y2="24.6">
	<stop  offset="5.618000e-03" style="stop-color:#541817"/>
	<stop  offset="8.427000e-02" style="stop-color:#541816"/>
	<stop  offset="0.382" style="stop-color:#8C5127"/>
	<stop  offset="0.6871" style="stop-color:#D4AD85"/>
	<stop  offset="0.9431" style="stop-color:#9B5C29"/>
	<stop  offset="0.9551" style="stop-color:#985825"/>
</linearGradient>
<path class="st0" d="M39.9,9.8c-1.3,0-2.4,1.1-2.4,2.4v8.4v0.7c0,0.4-0.3,0.7-0.7,0.7s-0.7-0.3-0.7-0.7v-0.7v-8.4V7.4
	c0-1.3-1.1-2.4-2.4-2.4s-2.4,1.1-2.4,2.4v13.2v0.7c0,0.4-0.3,0.7-0.7,0.7s-0.7-0.3-0.7-0.7v-0.7V7.4v-2C30.1,4.1,29,3,27.7,3
	s-2.4,1.1-2.4,2.4v2v13.2v0.7c0,0.4-0.3,0.7-0.7,0.7S24,21.6,24,21.2v-0.7V7.4C24,6.1,23,5,21.7,5c-1.3,0-2.4,1.1-2.4,2.4V30
	c0,0.3-0.1,0.5-0.4,0.6c-0.2,0.1-0.5,0.1-0.7,0l-6.1-4.2c-1.2-0.8-2.4-0.3-3,0.3c-0.6,0.7-1,1.8-0.2,3l8.2,10.7
	C20,44,24.4,46.2,29,46.2h0.4c6.3,0,12.8-1.5,12.8-12.8V12.1C42.2,10.8,41.2,9.8,39.9,9.8z"/>
</svg>
