<?xml version="1.0" encoding="utf-8"?>
<!-- Generator: Adobe Illustrator 24.0.2, SVG Export Plug-In . SVG Version: 6.00 Build 0)  -->
<svg version="1.1" id="Layer_1" xmlns="http://www.w3.org/2000/svg" xmlns:xlink="http://www.w3.org/1999/xlink" x="0px" y="0px"
	 viewBox="0 0 50 50" style="enable-background:new 0 0 50 50;" xml:space="preserve">
<style type="text/css">
	.st0{fill:url(#SVGID_1_);}
</style>
<g>
	<linearGradient id="SVGID_1_" gradientUnits="userSpaceOnUse" x1="6.885" y1="25.1965" x2="42.611" y2="25.1965">
		<stop  offset="5.618000e-03" style="stop-color:#541817"/>
		<stop  offset="8.427000e-02" style="stop-color:#541816"/>
		<stop  offset="0.382" style="stop-color:#8C5127"/>
		<stop  offset="0.6871" style="stop-color:#D4AD85"/>
		<stop  offset="0.9431" style="stop-color:#9B5C29"/>
		<stop  offset="0.9551" style="stop-color:#985825"/>
	</linearGradient>
	<path class="st0" d="M31.5,48.7c-0.9-4-0.3-10.8,1.7-10.8c1.9,0,4.3,0.3,5.8-0.2c0.7-0.2,1.5-0.9,1.7-1.6c0.2-0.7,0.1-1.7-0.4-2.7
		c-1.4-2.8,0.3-2.9-0.1-4c-0.2-0.7-1.4-0.6-1.4-0.6s1.8-0.2,1.5-1.6c-0.3-1.2-0.2-1.8,0.3-2.4c0.4-0.5,1.3-0.3,1.9-1.2
		c0.5-0.9-0.4-1.8-1-2.5c-1-1.2-3.3-3.2-3.4-4c-0.2-1.2,0.7-1.2,0.7-2.3c0-1.4-2.9-4.9-3.8-6.9C32.3,2.4,23.8-1,14.1,4.4
		c-12.5,6.9-5.5,21-2.7,26c1.5,2.7,2.4,7.2,1.6,9.9C11.3,45.4,23.1,46.4,31.5,48.7z"/>
</g>
</svg>
